<?xml version="1.0" standalone="no"?>
<!DOCTYPE svg PUBLIC "-//W3C//DTD SVG 1.1//EN" "http://www.w3.org/Graphics/SVG/1.1/DTD/svg11.dtd" >
<svg xmlns="http://www.w3.org/2000/svg" xmlns:xlink="http://www.w3.org/1999/xlink" version="1.1">
<metadata>
Created by FontForge 20170731 at Mon Oct  8 20:55:31 2012
 By ,,,
eurofurence (c) 1995..2000 tobias b ko:hler unci@tigerden.com
</metadata>
<defs>
<font id="Eurofurencebold" horiz-adv-x="1049" >
  <font-face 
    font-family="eurofurence"
    font-weight="700"
    font-stretch="normal"
    units-per-em="2048"
    panose-1="2 15 7 2 2 2 3 2 2 4"
    ascent="1638"
    descent="-410"
    x-height="970"
    cap-height="1328"
    bbox="-229 -360.014 1909 1689"
    underline-thickness="254"
    underline-position="-559"
    unicode-range="U+000D-E000"
  />
<missing-glyph horiz-adv-x="748" 
d="M68 0v1365h544v-1365h-544zM136 68h408v1229h-408v-1229z" />
    <glyph glyph-name=".notdef" horiz-adv-x="748" 
d="M68 0v1365h544v-1365h-544zM136 68h408v1229h-408v-1229z" />
    <glyph glyph-name="glyph1" horiz-adv-x="2048" 
 />
    <glyph glyph-name="glyph1" horiz-adv-x="2048" 
 />
    <glyph glyph-name="uni000D" unicode="&#xd;" horiz-adv-x="445" 
 />
    <glyph glyph-name="space" unicode=" " horiz-adv-x="445" 
 />
    <glyph glyph-name="exclam" unicode="!" horiz-adv-x="493" 
d="M88 158q0 65 46.5 110.5t112.5 45.5t112 -45.5t46 -110.5q0 -66 -46 -112t-112 -46t-112.5 46t-46.5 112zM119 521v680q0 56 36 91.5t92 35.5t91.5 -35.5t35.5 -91.5v-680q0 -56 -36 -91.5t-91 -35.5q-56 0 -92 35.5t-36 91.5z" />
    <glyph glyph-name="quotedbl" unicode="&#x22;" horiz-adv-x="834" 
d="M40 898q0 26 10 52l119 298q33 81 115 81q52 0 92.5 -35.5t40.5 -87.5q0 -24 -11 -52l-120 -298q-33 -81 -113 -81q-52 0 -92.5 35t-40.5 88zM418 898q0 26 10 52l119 298q33 81 115 81q52 0 92.5 -35.5t40.5 -87.5q0 -24 -12 -52l-119 -298q-33 -81 -114 -81
q-52 0 -92 35t-40 88z" />
    <glyph glyph-name="numbersign" unicode="#" horiz-adv-x="1407" 
d="M40 485q0 56 35.5 91.5t91.5 35.5h231v104h-231q-56 0 -91.5 35.5t-35.5 91.5t35.5 91.5t91.5 35.5h231v231q0 56 35.5 91.5t91.5 35.5t91.5 -35.5t35.5 -91.5v-231h104v231q0 56 35.5 91.5t91.5 35.5t91.5 -35.5t35.5 -91.5v-231h231q56 0 91.5 -35.5t35.5 -91.5
t-36 -91.5t-91 -35.5h-231v-104h231q56 0 91.5 -35.5t35.5 -91.5t-36 -91.5t-91 -35.5h-231v-231q0 -56 -35.5 -91.5t-91.5 -35.5t-91.5 36t-35.5 91v231h-104v-231q0 -56 -35.5 -91.5t-91.5 -35.5t-91.5 36t-35.5 91v231h-231q-56 0 -91.5 35.5t-35.5 91.5zM652 612h104
v104h-104v-104z" />
    <glyph glyph-name="dollar" unicode="$" horiz-adv-x="893" 
d="M40 280q0 52 40.5 89t92.5 37q51 0 90 -45q65 -76 69 -78v326q-120 32 -195 130t-75 223t75 223.5t195 129.5v125q0 95 96 95q95 0 95 -95v-125q81 -22 155 -86q85 -75 86 -150q0 -52 -41 -88.5t-93 -36.5q-49 0 -102 60t-100 60q-46 0 -78.5 -33t-32.5 -79t32.5 -78.5
t78.5 -32.5q177 0 301 -124t124 -301q0 -150 -92 -266t-238 -149v-122q0 -95 -95 -96q-95 0 -96 96v122q-192 45 -273 202q-19 37 -19 67zM523 284q76 51 76 142t-76 141v-283z" />
    <glyph glyph-name="percent" unicode="%" horiz-adv-x="1412" 
d="M40 128q0 49 40 89l383 383q-27 -4 -55 -3q-152 0 -259 106.5t-107 258.5t107 259t259 107t259 -107t107 -259q0 -28 -4 -55l383 384q40 40 89 40q52 0 91.5 -39.5t39.5 -91.5q0 -49 -40 -89l-383 -383q27 4 55 4q152 0 258.5 -107t106.5 -259t-107 -259t-258 -107
q-152 0 -259 107t-107 259q0 28 4 55l-384 -384q-40 -40 -89 -39q-52 0 -91 39t-39 91zM297 962q0 -46 32.5 -78.5t78.5 -32.5t78.5 32.5t32.5 78.5t-32.5 79t-78.5 33t-78.5 -33t-32.5 -79zM893 366q0 -46 32.5 -78.5t79.5 -32.5q46 0 78.5 32.5t32.5 78.5t-32.5 78.5
t-78.5 32.5t-79 -32.5t-33 -78.5z" />
    <glyph glyph-name="ampersand" unicode="&#x26;" horiz-adv-x="1131" 
d="M40 426q0 185 136 311q-76 99 -77 225q0 152 107 259t259 107t259 -107t107 -259q0 -103 -53 -190.5t-145 -134.5l419 -420q40 -40 40 -89q0 -52 -39.5 -91t-90.5 -39q-49 0 -90 39l-97 97q-126 -134 -310 -134q-177 0 -301 124t-124 302zM294 426q0 -72 50 -121.5
t121 -49.5q81 0 130 60l-240 241q-60 -52 -61 -130zM354 962q0 -48 68 -113q21 2 43 2q45 0 78.5 33t33.5 78t-33 78.5t-79 33.5q-45 0 -78 -33t-33 -79z" />
    <glyph glyph-name="quotesingle" unicode="'" horiz-adv-x="456" 
d="M40 898q0 26 10 52l119 298q33 81 115 81q52 0 92.5 -35.5t40.5 -87.5q0 -24 -11 -52l-120 -298q-33 -81 -113 -81q-52 0 -92.5 35t-40.5 88z" />
    <glyph glyph-name="parenleft" unicode="(" horiz-adv-x="527" 
d="M40 485q0 347 148 665q43 92 61 116q45 63 105 63q52 0 93 -37t41 -89q0 -32 -29 -86q-16 -29 -45 -86q-119 -253 -120 -546q0 -293 120 -545q15 -29 44.5 -84.5t29.5 -88.5q0 -52 -41 -89t-93 -37q-60 0 -105 63q-18 25 -61 116q-149 318 -148 665z" />
    <glyph glyph-name="parenright" unicode=")" horiz-adv-x="527" 
d="M40 -233q0 32 28 87q16 28 46 86q119 251 119 545t-119 546q-15 29 -44.5 85t-29.5 87q0 52 40.5 89t92.5 37q60 0 105 -63q17 -24 61 -116q149 -318 149 -665t-149 -665q-43 -91 -61 -116q-45 -63 -105 -63q-52 0 -92.5 36.5t-40.5 89.5z" />
    <glyph glyph-name="asterisk" unicode="*" 
d="M40 843q0 49 28 88q30 43 77 42q12 0 149 -34l-112 67q-40 24 -40 89q0 52 39 91.5t92 39.5q65 0 89 -40l67 -112q-35 138 -35 149q0 47 43 77q39 28 88 28t87 -28q43 -30 43 -77q0 -12 -35 -149l68 112q24 40 89 40q52 0 91 -39t39 -92q0 -65 -39 -89l-112 -67
q138 35 149 34q47 0 77 -42q28 -39 28 -88t-28 -87q-30 -43 -77 -43q-12 0 -149 35l112 -68q40 -24 39 -89q0 -52 -38.5 -91t-91.5 -39q-59 0 -97 50q-30 51 -60 101q35 -138 35 -149q0 -47 -43 -77q-39 -28 -87 -28q-49 0 -88 28q-43 30 -43 77q0 12 35 149l-67 -112
q-24 -40 -89 -39q-52 0 -91.5 38.5t-39.5 91.5q0 59 50 97l102 60q-138 -35 -149 -35q-47 0 -77 43q-28 39 -28 87z" />
    <glyph glyph-name="plus" unicode="+" 
d="M40 574q0 56 35.5 91.5t91.5 35.5h231v231q0 56 35 91.5t92 35.5q56 0 91.5 -35t35.5 -92v-231h231q56 0 91.5 -35.5t35.5 -91.5t-35.5 -91.5t-91.5 -35.5h-231v-231q0 -56 -35.5 -91t-91.5 -35t-91.5 35.5t-35.5 90.5v231h-231q-56 0 -91.5 36t-35.5 91z" />
    <glyph glyph-name="comma" unicode="," horiz-adv-x="441" 
d="M40 -126q0 30 53.5 107t53.5 146q0 56 36 92t91 36q56 0 92 -36t36 -92q0 -209 -143 -343q-42 -40 -89 -40q-52 0 -91 39.5t-39 90.5z" />
    <glyph glyph-name="hyphen" unicode="-" horiz-adv-x="691" 
d="M40 485q0 56 35.5 91.5t91.5 35.5h358q56 0 91.5 -35.5t35.5 -91.5t-35.5 -91.5t-91.5 -35.5h-358q-56 0 -91.5 35.5t-35.5 91.5z" />
    <glyph glyph-name="period" unicode="." horiz-adv-x="396" 
d="M40 158q0 65 46 110.5t112 45.5t112 -45.5t46 -110.5q0 -66 -46 -112t-112 -46t-112 46t-46 112z" />
    <glyph glyph-name="slash" unicode="/" horiz-adv-x="1053" 
d="M40 -235q0 31 15 61l716 1432q36 72 109 72q52 0 93 -36.5t41 -88.5q0 -29 -16 -61l-716 -1433q-36 -72 -109 -71q-52 0 -92.5 36t-40.5 89z" />
    <glyph glyph-name="zero" unicode="0" 
d="M40 574q0 223 129 392q141 184 356 183q216 0 356 -183q129 -169 129 -392q0 -222 -129 -390q-141 -184 -356 -184q-216 0 -356 184q-129 169 -129 390zM294 574q0 -198 132 -287q49 -33 99 -32q50 0 99 32q132 89 132 287q0 213 -147 297q-42 24 -84 24t-84 -24
q-146 -84 -147 -297zM429 574q0 40 28 68t68 28t67.5 -28t27.5 -68q0 -39 -28 -67t-67 -28t-67.5 28t-28.5 67z" />
    <glyph glyph-name="one" unicode="1" 
d="M138 725q0 50 39 89l283 282q56 56 105 56q92 0 121 -85q7 -21 7 -68v-744h91q56 0 91.5 -36t35.5 -92t-35.5 -91.5t-91.5 -35.5h-437q-56 0 -91.5 36t-35.5 91q0 56 35.5 92t91.5 36h91v460l-59 -60q-61 -61 -110 -61q-52 0 -91.5 39.5t-39.5 91.5z" />
    <glyph glyph-name="two" unicode="2" 
d="M90 111q0 63 69 118q39 20 136 72q410 228 410 423q0 72 -49.5 121.5t-121.5 49.5t-121.5 -50t-49.5 -121q0 -56 -35.5 -91.5t-91.5 -35.5t-91.5 35.5t-35.5 91.5q0 177 124 301t301 124t301.5 -124t124.5 -301q0 -167 -105 -280q-25 -27 -240 -189h218q56 0 91.5 -36
t35.5 -92t-36 -91.5t-91 -35.5h-597q-58 0 -98 26q-48 30 -48 85z" />
    <glyph glyph-name="three" unicode="3" 
d="M82 115q0 52 40.5 89t93.5 37q45 0 119.5 -82.5t159.5 -82.5q84 0 142.5 58t58.5 142t-58.5 142.5t-142.5 58.5q-60 0 -131 -50.5t-106 -50.5q-51 0 -89 38.5t-38 89.5q0 56 47 99l318 292h-285q-56 0 -91.5 35.5t-35.5 91.5t35.5 91.5t91.5 35.5h612q57 0 98 -25
q47 -30 47 -84q0 -59 -58 -112l-248 -227q131 -51 209.5 -167.5t78.5 -257.5q0 -189 -132.5 -322t-322.5 -133q-120 0 -228 61q-111 63 -166 167q-19 36 -19 66z" />
    <glyph glyph-name="four" unicode="4" 
d="M39 304q0 38 37 93l453 680q49 74 113 74q87 0 119 -73q11 -25 11 -76v-569h112q56 0 91.5 -35.5t35.5 -91.5t-36 -91.5t-91 -35.5h-112v-231q0 -56 -35.5 -91.5t-91.5 -35.5t-91.5 36t-35.5 91v231h-326q-42 0 -58 4q-41 10 -68 44.5t-27 76.5zM406 433h112v169z" />
    <glyph glyph-name="five" unicode="5" 
d="M63 130q0 52 40 89t93 37q50 0 91 -47l77 -87q56 -47 138 -46q96 0 163.5 67t67.5 163t-67.5 163.5t-163.5 67.5q-82 0 -138 -47l-74 -84q-50 -49 -94 -50q-53 0 -93 36.5t-40 89.5l86 554q17 114 124 113h587q56 0 91.5 -35.5t35.5 -91.5t-36 -91.5t-91 -35.5h-476
l-19 -124q68 21 137 20q202 0 343.5 -141.5t141.5 -343.5t-141.5 -343.5t-343.5 -141.5q-127 0 -244 65q-120 68 -176 178q-19 37 -19 66z" />
    <glyph glyph-name="six" unicode="6" 
d="M40 485q0 351 246 597t597 246q56 0 91.5 -35.5t35.5 -91.5t-35.5 -91.5t-91.5 -35.5q-184 0 -334 -104q195 -10 328 -150t133 -335q0 -202 -141.5 -343.5t-343.5 -141.5q-203 0 -344 141t-141 344zM294 485q0 -96 67.5 -163t163.5 -67t163.5 67t67.5 163t-67.5 163.5
t-163.5 67.5t-163.5 -67.5t-67.5 -163.5z" />
    <glyph glyph-name="seven" unicode="7" 
d="M39 1022q0 56 36 91.5t91 35.5h712q55 0 94 -35t39 -89q0 -33 -28 -84l-565 -1053q-37 -68 -109 -69q-52 0 -92.5 37t-40.5 89q0 31 17 64l476 886h-503q-56 0 -91.5 35.5t-35.5 91.5z" />
    <glyph glyph-name="eight" unicode="8" 
d="M99 426q0 186 137 312q-77 99 -77 224q0 152 107 259t259 107t259 -107t107 -259q0 -126 -77 -224q136 -126 136 -312q0 -177 -124 -301.5t-301 -124.5t-301.5 124t-124.5 302zM354 426q0 -72 49.5 -121.5t121.5 -49.5t121.5 49.5t49.5 121.5t-49.5 121.5t-121.5 49.5
t-121.5 -50t-49.5 -121zM414 962q0 -46 32.5 -78.5t78.5 -32.5t78.5 32.5t32.5 78.5t-32.5 79t-78.5 33t-78.5 -33t-32.5 -79z" />
    <glyph glyph-name="nine" unicode="9" 
d="M40 -52q0 56 35.5 92t91.5 36q184 0 334 104q-195 10 -328 149.5t-133 334.5q0 202 141.5 343.5t343.5 141.5t343.5 -141.5t141.5 -343.5q0 -352 -245.5 -597.5t-597.5 -245.5q-56 0 -91.5 36t-35.5 91zM294 664q0 -96 67.5 -163.5t163.5 -67.5t163.5 67.5t67.5 163.5
t-67.5 163.5t-163.5 67.5t-163.5 -67.5t-67.5 -163.5z" />
    <glyph glyph-name="colon" unicode=":" horiz-adv-x="396" 
d="M40 158q0 65 46 110.5t112 45.5t112 -45.5t46 -110.5q0 -66 -46 -112t-112 -46t-112 46t-46 112zM40 814q0 65 46 110.5t112 45.5t112 -45.5t46 -110.5q0 -66 -46 -112t-112 -46t-112 46t-46 112z" />
    <glyph glyph-name="semicolon" unicode=";" horiz-adv-x="472" 
d="M40 -126q0 30 53.5 107t53.5 146q0 56 36 92t91 36q56 0 92 -36t36 -92q0 -209 -143 -343q-42 -40 -89 -40q-52 0 -91 39.5t-39 90.5zM116 814q0 65 46 110.5t112 45.5t112.5 -45t46.5 -111t-46.5 -112t-112.5 -46t-112 46t-46 112z" />
    <glyph glyph-name="less" unicode="&#x3c;" 
d="M38 574q0 78 94 125l694 348q30 15 61 15q52 0 88.5 -40.5t36.5 -93.5q0 -74 -72 -110l-488 -244l488 -243q72 -36 72 -110q0 -52 -36.5 -93t-88.5 -41q-31 0 -61 16l-694 347q-94 47 -94 124z" />
    <glyph glyph-name="equal" unicode="=" 
d="M40 407q0 56 35.5 91.5t91.5 35.5h716q56 0 91.5 -35.5t35.5 -91.5t-35.5 -91.5t-91.5 -35.5h-716q-56 0 -91.5 36t-35.5 91zM40 741q0 56 35.5 92t91.5 36h716q56 0 91.5 -36t35.5 -92t-35.5 -91.5t-91.5 -35.5h-716q-56 0 -91.5 36t-35.5 91z" />
    <glyph glyph-name="greater" unicode="&#x3e;" 
d="M38 221q0 74 72 110l488 243l-488 244q-72 36 -72 110q0 52 36.5 93t88.5 41q31 0 61 -15l694 -348q94 -47 94 -129q0 -73 -94 -120l-694 -347q-30 -15 -61 -16q-52 0 -88.5 41t-36.5 93z" />
    <glyph glyph-name="question" unicode="?" horiz-adv-x="811" 
d="M40 986q0 151 108 248q105 94 258 94t257 -94q108 -97 108 -248q0 -152 -108 -249q-103 -93 -257 -93q-23 0 -23 -22q0 -18 34 -18q21 11 67 11q52 0 88.5 -37t36.5 -89q0 -68 -70 -109q-60 -34 -133 -34q-115 0 -195.5 80.5t-80.5 195.5t80 196t193.5 81t113.5 87
t-111 88q-111 0 -112 -88q0 -103 -127 -103t-127 103zM247 150q0 65 46.5 106.5t112.5 41.5t112 -41.5t46 -106.5t-46 -107.5t-112 -42.5t-112.5 42.5t-46.5 107.5z" />
    <glyph glyph-name="at" unicode="@" horiz-adv-x="1308" 
d="M40 664q0 275 215 473q210 192 489 191q219 0 370 -144q155 -147 155 -365q0 -219 -153 -368t-372 -149q-161 0 -272 100q-114 103 -114 262t114 263q111 99 272 99q122 0 221 -62q-83 126 -221 126q-173 0 -310 -126q-140 -129 -140 -300t140 -300q137 -126 310 -125
q142 0 261 82q14 13 45 38q52 42 91 42q46 0 80.5 -34t34.5 -80q0 -68 -106 -148q-185 -139 -406 -139q-278 0 -489 192q-216 197 -215 472zM612 664q0 -54 38.5 -88.5t93.5 -34.5t93 34.5t38 88.5t-38 88.5t-93 34.5t-93.5 -34.5t-38.5 -88.5z" />
    <glyph glyph-name="A" unicode="A" horiz-adv-x="1411" 
d="M40 123q0 31 15 62l526 1051q47 94 124 94q78 0 125 -94l526 -1051q16 -33 16 -62q0 -52 -40.5 -88.5t-93.5 -36.5q-74 0 -109 72l-144 288h-559l-144 -288q-36 -72 -109 -72q-52 0 -92.5 36.5t-40.5 88.5zM554 612h303l-152 304z" />
    <glyph glyph-name="B" unicode="B" horiz-adv-x="1010" 
d="M119 127v1074q0 52 38 89.5t90 37.5h298q152 0 259 -107t107 -259q0 -126 -77 -224q136 -127 136 -313q0 -177 -124.5 -301.5t-301.5 -124.5l-297 1q-51 0 -89.5 38t-38.5 89zM374 255l170 -1q72 0 122 49.5t50 121.5t-50 122t-121 50h-171v-342zM374 851h171
q46 0 78.5 32.5t32.5 78.5t-32.5 79t-78.5 33h-171v-223z" />
    <glyph glyph-name="C" unicode="C" horiz-adv-x="1252" 
d="M40 664q0 276 194 470t470 194q228 0 412 -143q97 -76 97 -140q0 -52 -39.5 -91t-91.5 -39q-43 0 -89 39q-10 10 -39 35q-108 85 -250 85q-170 0 -290 -120t-120 -290t120 -289.5t290 -119.5q141 0 250 85q11 10 39 35q46 39 89 39q52 0 91.5 -39.5t39.5 -91.5
q0 -64 -97 -140q-184 -143 -412 -143q-276 0 -470 194t-194 470z" />
    <glyph glyph-name="D" unicode="D" horiz-adv-x="1308" 
d="M119 127v1074q0 52 38 89.5t90 37.5h357q277 0 471 -193.5t194 -470.5t-194 -470.5t-471 -193.5h-357q-52 0 -90 38t-38 89zM374 255h230q170 0 290 119.5t120 289.5t-119.5 290t-290.5 120h-230v-819z" />
    <glyph glyph-name="E" unicode="E" horiz-adv-x="1010" 
d="M119 127v1074q0 51 38.5 89t89.5 38h596q56 0 91.5 -35.5t35.5 -91.5t-35.5 -91.5t-91.5 -35.5h-469v-283h350q56 0 91.5 -35.5t35.5 -91.5t-36 -91.5t-91 -35.5h-350v-282l469 -1q56 0 91.5 -36t35.5 -92t-36 -91.5t-92 -35.5l-595 1q-51 0 -89.5 38t-38.5 89z" />
    <glyph glyph-name="F" unicode="F" horiz-adv-x="970" 
d="M119 127v1074q0 51 38.5 89t89.5 38h596q56 0 91.5 -35.5t35.5 -91.5t-35.5 -91.5t-91.5 -35.5h-469v-283h350q56 0 91.5 -35.5t35.5 -91.5t-36 -91.5t-91 -35.5h-350v-410q0 -56 -36 -91.5t-91 -35.5q-56 0 -92 36t-36 91z" />
    <glyph glyph-name="G" unicode="G" horiz-adv-x="1292" 
d="M40 664q0 276 194 470t470 194q228 0 412 -143q97 -76 97 -140q0 -52 -39.5 -91t-91.5 -39q-43 0 -89 39q-10 10 -39 35q-109 85 -250 85q-170 0 -290 -120t-120 -290t120 -289.5t290 -119.5q145 0 252 86v323q0 56 36 91.5t91 35.5q56 0 92 -35.5t36 -91.5v-381
q0 -67 -95 -140q-185 -143 -412 -143q-276 0 -470 194t-194 470z" />
    <glyph glyph-name="H" unicode="H" horiz-adv-x="1208" 
d="M119 127v1074q0 56 36 91.5t92 35.5t91.5 -35.5t35.5 -91.5v-410h461v410q0 56 36 91.5t91 35.5q56 0 92 -35.5t36 -91.5v-1074q0 -56 -36 -91.5t-92 -35.5t-91.5 36t-35.5 91v410h-461v-410q0 -56 -36 -91.5t-91 -35.5q-56 0 -92 36t-36 91z" />
    <glyph glyph-name="I" unicode="I" horiz-adv-x="493" 
d="M119 127v1074q0 56 36 91.5t92 35.5t91.5 -35.5t35.5 -91.5v-1074q0 -56 -36 -91.5t-91 -35.5q-56 0 -92 36t-36 91z" />
    <glyph glyph-name="J" unicode="J" horiz-adv-x="592" 
d="M-229 -107q0 52 40.5 88.5t93.5 36.5q51 0 103 -60.5t99 -60.5q46 0 79 32.5t33 78.5v1193q0 56 35.5 91.5t91.5 35.5t91.5 -35.5t35.5 -91.5v-1193q0 -152 -107 -259t-259 -107q-97 0 -183 49q-89 51 -134 135q-19 36 -19 67z" />
    <glyph glyph-name="K" unicode="K" horiz-adv-x="1209" 
d="M119 127v1074q0 56 36 91.5t92 35.5t91.5 -35.5t35.5 -91.5v-1074q0 -56 -36 -91.5t-91 -35.5q-56 0 -92 36t-36 91zM374 664q0 50 40 90l536 537q40 40 90 40q52 0 91 -39.5t39 -91.5q0 -49 -40 -89l-447 -447l447 -447q40 -40 40 -89q0 -52 -39.5 -91t-90.5 -39
q-49 0 -90 39l-536 537q-40 40 -40 90z" />
    <glyph glyph-name="L" unicode="L" horiz-adv-x="970" 
d="M119 127v1074q0 56 36 91.5t92 35.5t91.5 -35.5t35.5 -91.5v-946h469q56 0 91.5 -36t35.5 -92t-35.5 -91.5t-91.5 -35.5h-596q-51 0 -89.5 38t-38.5 89z" />
    <glyph glyph-name="M" unicode="M" horiz-adv-x="1528" 
d="M40 122q0 14 4 33l234 1053q6 26 25 70q37 51 107 51q80 0 121 -97l233 -543l233 543q41 97 121 97q70 0 108 -51q14 -19 25 -70l234 -1053q4 -19 4 -33q0 -53 -38.5 -87.5t-92.5 -34.5q-99 0 -121 99l-154 689l-192 -450q-43 -100 -127 -100t-126 100l-193 450
l-153 -689q-22 -99 -121 -99q-53 0 -92 34.5t-39 87.5z" />
    <glyph glyph-name="N" unicode="N" horiz-adv-x="1328" 
d="M119 127v1075q0 55 38 92t93 37q57 0 109 -68l595 -765v703q0 56 36 91.5t92 35.5t91.5 -35.5t35.5 -91.5v-1075q0 -55 -38 -91.5t-93 -36.5q-57 0 -109 67l-595 765v-703q0 -56 -36 -91.5t-91 -35.5q-56 0 -92 36t-36 91z" />
    <glyph glyph-name="O" unicode="O" horiz-adv-x="1407" 
d="M40 664q0 277 193.5 470.5t470.5 193.5t470.5 -193.5t193.5 -470.5t-193.5 -470.5t-470.5 -193.5t-470.5 193.5t-193.5 470.5zM294 664q0 -170 120 -289.5t290 -119.5t289.5 119.5t119.5 289.5t-119.5 290t-289.5 120t-290 -120t-120 -290z" />
    <glyph glyph-name="P" unicode="P" horiz-adv-x="1010" 
d="M119 127v1074q0 52 38 89.5t90 37.5h298q177 0 301 -124t124 -301t-124 -301.5t-301 -124.5h-44q-56 0 -91.5 36t-35.5 91q0 56 35.5 92t91.5 36h44q72 0 121.5 49.5t49.5 121.5t-50 121.5t-121 49.5h-171v-947q0 -56 -36 -91.5t-91 -35.5q-56 0 -92 35.5t-36 91.5z" />
    <glyph glyph-name="Q" unicode="Q" horiz-adv-x="1407" 
d="M40 664q0 277 193.5 470.5t470.5 193.5t470.5 -193.5t193.5 -470.5q0 -211 -120 -382t-318 -242q123 -143 311 -143q56 0 91.5 -36t35.5 -92t-36 -91.5t-91 -35.5q-187 0 -346 97t-244 263q-260 21 -435.5 211t-175.5 451zM294 664q0 -134 78 -241t205 -149q-1 16 0 32
q0 56 35.5 91.5t91.5 35.5t91.5 -35.5t35.5 -91.5q0 -16 1 -31q126 41 203.5 148.5t77.5 240.5q0 170 -119.5 290t-289.5 120t-290 -120t-120 -290z" />
    <glyph glyph-name="R" unicode="R" horiz-adv-x="1012" 
d="M119 127v1074q0 51 38.5 89t89.5 38h298q177 0 301 -124t124 -301q0 -144 -86.5 -258.5t-225.5 -152.5l275 -275q40 -40 40 -89q0 -52 -39.5 -91t-91.5 -39q-49 0 -89 39l-379 380v-290q0 -56 -36 -91.5t-91 -35.5q-56 0 -92 36t-36 91zM374 732h171q72 0 121.5 49.5
t49.5 121.5t-50 121.5t-121 49.5h-171v-342z" />
    <glyph glyph-name="S" unicode="S" horiz-adv-x="893" 
d="M40 280q0 52 40.5 89t92.5 37q47 0 114.5 -75.5t140.5 -75.5q71 0 121 50t50 121q0 72 -50 121.5t-122 49.5q-152 0 -258.5 106.5t-106.5 258.5q0 153 106.5 259.5t259.5 106.5q95 0 183.5 -49.5t132.5 -131.5q20 -37 20 -68q0 -52 -41 -88.5t-93 -36.5q-49 0 -102 60
t-100 60q-46 0 -78.5 -33t-32.5 -79t32.5 -78.5t78.5 -32.5q177 0 301 -124t124 -301t-124 -301.5t-301 -124.5q-112 0 -214 57q-105 59 -155 156q-19 37 -19 67z" />
    <glyph glyph-name="T" unicode="T" horiz-adv-x="1010" 
d="M40 1201q0 56 35.5 91.5t91.5 35.5h716q56 0 91.5 -35.5t35.5 -91.5t-35.5 -91.5t-91.5 -35.5h-231v-947q0 -56 -35.5 -91.5t-91.5 -35.5t-91.5 36t-35.5 91v947h-231q-56 0 -91.5 35.5t-35.5 91.5z" />
    <glyph glyph-name="U" unicode="U" horiz-adv-x="1129" 
d="M80 485v716q0 56 35.5 91.5t91.5 35.5t91.5 -35.5t35.5 -91.5v-716q0 -96 67 -163t164 -67q96 0 163 67t67 163v716q0 56 36 91.5t92 35.5t91.5 -35.5t35.5 -91.5v-716q0 -202 -141.5 -343.5t-343.5 -141.5t-343.5 141.5t-141.5 343.5z" />
    <glyph glyph-name="V" unicode="V" horiz-adv-x="1371" 
d="M40 1205q0 52 40.5 88.5t92.5 36.5q73 0 109 -72l423 -846l424 846q36 72 109 72q52 0 93 -36.5t41 -88.5q0 -29 -16 -61l-526 -1052q-47 -94 -125 -94q-77 0 -124 94l-526 1052q-15 30 -15 61z" />
    <glyph glyph-name="W" unicode="W" horiz-adv-x="1908" 
d="M40 1205q0 52 40.5 88.5t92.5 36.5q73 0 109 -72l423 -846l127 252l-240 480q-15 30 -15 61q0 52 40.5 88.5t92.5 36.5q73 0 109 -72l155 -309l155 309q36 72 109 72q52 0 93 -36.5t41 -88.5q0 -29 -16 -61l-239 -480l125 -252l423 846q36 72 110 72q52 0 93 -36.5
t41 -88.5q0 -29 -16 -61l-526 -1052q-47 -94 -125 -94q-77 0 -124 94l-144 287l-144 -287q-47 -94 -125 -94q-77 0 -124 94l-526 1052q-15 30 -15 61z" />
    <glyph glyph-name="X" unicode="X" horiz-adv-x="1173" 
d="M40 126q0 41 29 79l357 459l-357 459q-29 38 -29 79q0 52 39.5 90.5t92.5 38.5q57 0 98 -52l317 -407l317 407q41 52 97 52q52 0 92.5 -39t40.5 -90q0 -41 -29 -79l-357 -459l357 -459q29 -38 29 -79q0 -52 -40 -90t-93 -38q-56 0 -97 51l-317 408l-317 -408
q-40 -51 -96 -51h-2q-52 0 -92 38.5t-40 89.5z" />
    <glyph glyph-name="Y" unicode="Y" horiz-adv-x="1134" 
d="M40 1202q0 52 39.5 90.5t92.5 38.5q57 0 98 -52l317 -407l317 407q41 52 97 52q52 0 92.5 -38.5t40.5 -90.5q0 -41 -29 -79l-391 -503v-493q0 -56 -35.5 -91.5t-91.5 -35.5t-91.5 36t-35.5 91v493l-391 503q-29 38 -29 79z" />
    <glyph glyph-name="Z" unicode="Z" horiz-adv-x="1173" 
d="M40 126q0 41 44 98l660 850h-575q-56 0 -91.5 35.5t-35.5 91.5t36 91.5t91 35.5h832q55 0 94 -35.5t39 -90.5q0 -41 -44 -98l-661 -849h576q56 0 91.5 -36t35.5 -92t-36 -91.5t-91 -35.5h-833q-55 0 -93.5 36t-38.5 90z" />
    <glyph glyph-name="bracketleft" unicode="[" horiz-adv-x="771" 
d="M119 -231v1432q0 51 38.5 89t89.5 38h357q56 0 92 -35.5t36 -91.5t-36 -91.5t-92 -35.5h-230v-1177h230q56 0 92 -36t36 -92t-36 -91.5t-92 -35.5h-357q-51 0 -89.5 38t-38.5 89z" />
    <glyph glyph-name="backslash" unicode="\" horiz-adv-x="1053" 
d="M40 1205q0 52 40.5 88.5t92.5 36.5q73 0 109 -72l716 -1432q16 -32 16 -61q0 -52 -40.5 -88.5t-93.5 -36.5q-74 0 -109 71l-716 1433q-15 30 -15 61z" />
    <glyph glyph-name="bracketright" unicode="]" horiz-adv-x="771" 
d="M40 -231q0 56 35.5 92t91.5 36h231v1177h-231q-56 0 -91.5 35.5t-35.5 91.5t35.5 91.5t91.5 35.5h358q51 0 89 -38t38 -89v-1432q0 -51 -38 -89t-89 -38h-358q-56 0 -91.5 36t-35.5 91z" />
    <glyph glyph-name="asciicircum" unicode="^" horiz-adv-x="816" 
d="M40 963q0 49 40 89l238 239q40 40 91 40q49 0 89 -40l238 -239q40 -40 40 -89q0 -52 -39.5 -91t-91.5 -39q-49 0 -88 39l-149 149l-149 -149q-40 -40 -89 -39q-52 0 -91 39t-39 91z" />
    <glyph glyph-name="underscore" unicode="_" 
d="M40 127q0 56 35.5 92t91.5 36h716q56 0 91.5 -36t35.5 -92t-35.5 -91.5t-91.5 -35.5h-716q-56 0 -91.5 36t-35.5 91z" />
    <glyph glyph-name="grave" unicode="`" horiz-adv-x="456" 
d="M40 1206q0 52 40 87.5t93 35.5q81 0 113 -81l120 -298q11 -28 11 -52q0 -52 -40.5 -87.5t-92.5 -35.5q-82 0 -115 81l-119 298q-10 25 -10 52z" />
    <glyph glyph-name="a" unicode="a" horiz-adv-x="851" 
d="M40 326q0 151 110 242q102 84 256 84q62 0 111 -16v8q0 46 -32.5 79t-78.5 33q-33 0 -87.5 -39.5t-95.5 -39.5q-45 0 -79 28q-37 30 -37 74q0 41 40 84q101 107 259 107q152 0 258.5 -107t106.5 -259v-477q0 -56 -35.5 -91.5t-91.5 -35.5q-52 0 -88 32q-61 -32 -150 -32
q-154 0 -256 84q-110 91 -110 242zM294 326q0 -46 32.5 -78.5t79.5 -32.5q46 0 78.5 32.5t32.5 78.5t-32.5 78.5t-78.5 32.5t-79 -32.5t-33 -78.5z" />
    <glyph glyph-name="b" unicode="b" horiz-adv-x="1089" 
d="M80 484v717q0 56 35.5 91.5t91.5 35.5t91.5 -35.5t35.5 -91.5v-289q107 58 231 58q202 0 343.5 -141.5t141.5 -343.5t-141.5 -343.5t-343.5 -141.5t-343.5 141t-141.5 343zM334 485q0 -96 67 -163t164 -67q96 0 163 67t67 163t-67 163.5t-163 67.5t-163.5 -67.5
t-67.5 -163.5z" />
    <glyph glyph-name="c" unicode="c" horiz-adv-x="947" 
d="M40 485q0 202 141.5 343.5t343.5 141.5q92 0 186 -37q99 -39 157 -104q39 -45 39 -89q0 -52 -39 -92t-91 -40q-29 0 -106.5 54t-145.5 54q-96 0 -163.5 -67.5t-67.5 -163.5t67.5 -163t163.5 -67q68 0 145 53t106 53q52 0 91.5 -39.5t39.5 -90.5q0 -44 -40 -89
q-59 -66 -156 -105q-92 -37 -186 -37q-202 0 -343.5 141.5t-141.5 343.5z" />
    <glyph glyph-name="d" unicode="d" horiz-adv-x="1129" 
d="M40 485q0 202 141.5 343.5t343.5 141.5q123 0 231 -58v289q0 56 35.5 91.5t91.5 35.5t91.5 -35.5t35.5 -91.5v-1074q0 -56 -35.5 -91.5t-91.5 -35.5q-80 0 -114 66q-113 -66 -244 -66q-202 0 -343.5 141.5t-141.5 343.5zM294 485q0 -96 67.5 -163t163.5 -67t163.5 67
t67.5 163t-67.5 163.5t-163.5 67.5t-163.5 -67.5t-67.5 -163.5z" />
    <glyph glyph-name="e" unicode="e" horiz-adv-x="1003" 
d="M40 485q0 202 141.5 343.5t343.5 141.5q99 0 198 -45t166 -119q73 -80 73 -151q0 -65 -63 -101l-477 -275q47 -24 99 -24h4q83 0 138 46q37 42 73 85q50 49 95 49q52 0 92.5 -37t40.5 -89q0 -29 -19 -66q-56 -111 -177 -178q-115 -65 -243 -65q-202 0 -343.5 141.5
t-141.5 343.5zM295 499l333 193q-49 24 -103 24q-91 0 -158 -62.5t-72 -154.5z" />
    <glyph glyph-name="f" unicode="f" horiz-adv-x="765" 
d="M40 843q0 56 35.5 91.5t91.5 35.5h52v52q0 127 89.5 216.5t216.5 89.5q98 0 163 -41q78 -50 78 -142q0 -51 -27 -90q-30 -45 -80 -46q-33 0 -76.5 32.5t-57.5 32.5q-52 0 -52 -76v-28h52q56 0 91.5 -35.5t35.5 -91.5t-35.5 -91.5t-91.5 -35.5h-52v-589q0 -56 -35.5 -91.5
t-91.5 -35.5t-91.5 36t-35.5 91v589h-52q-56 0 -91.5 35.5t-35.5 91.5z" />
    <glyph glyph-name="g" unicode="g" horiz-adv-x="930" 
d="M40 68q0 56 35.5 91.5t91.5 35.5t91.5 -36t35.5 -91q0 -72 50 -121.5t121 -49.5q72 0 121.5 49.5t49.5 121.5t-49.5 121.5t-121.5 49.5q-152 0 -259 107t-107 258q0 152 107 259t259 107h299q56 0 91.5 -35.5t35.5 -91.5q0 -91 -80 -119q20 -58 20 -120q0 -126 -77 -224
q137 -126 137 -312q0 -177 -124 -301.5t-302 -124.5q-177 0 -301 124t-124 302zM354 604q0 -46 32.5 -78.5t78.5 -32.5t79 32.5t33 78.5t-33 79t-79 33t-78.5 -32.5t-32.5 -79.5z" />
    <glyph glyph-name="h" unicode="h" horiz-adv-x="930" 
d="M119 127v1074q0 56 36 91.5t92 35.5t91.5 -35.5t35.5 -91.5v-248q54 17 111 17q152 0 259 -106.5t107 -258.5v-478q0 -56 -36 -91.5t-91 -35.5q-56 0 -91.5 36t-35.5 91v477q0 46 -33 79t-79 33t-78.5 -32.5t-32.5 -79.5v-477q0 -56 -36 -91.5t-91 -35.5q-56 0 -92 36
t-36 91z" />
    <glyph glyph-name="i" unicode="i" horiz-adv-x="493" 
d="M88 1170q0 66 46.5 112t112.5 46t112 -46t46 -112q0 -65 -46 -110.5t-112 -45.5t-112.5 45.5t-46.5 110.5zM119 127v716q0 56 36 91.5t92 35.5t91.5 -35.5t35.5 -91.5v-716q0 -56 -36 -91.5t-91 -35.5q-56 0 -92 36t-36 91z" />
    <glyph glyph-name="j" unicode="j" horiz-adv-x="493" 
d="M-173 -175q0 51 27 91q30 45 79 45q33 0 76.5 -32t58.5 -32q52 0 51 51v895q0 56 36 91.5t92 35.5t91.5 -35.5t35.5 -91.5v-895q0 -127 -89.5 -216.5t-216.5 -89.5q-98 0 -163 41q-78 49 -78 142zM88 1170q0 66 46.5 112t112.5 46t112 -46t46 -112q0 -65 -46 -110.5
t-112 -45.5t-112.5 45.5t-46.5 110.5z" />
    <glyph glyph-name="k" unicode="k" horiz-adv-x="1028" 
d="M119 127v1074q0 56 36 91.5t92 35.5t91.5 -35.5t35.5 -91.5v-1074q0 -56 -36 -91.5t-91 -35.5q-56 0 -92 36t-36 91zM469 643q26 25 142 136q44 43 158 154q42 40 89 40q52 0 91.5 -39.5t39.5 -91.5q0 -49 -40 -89l-268 -268l268 -268q40 -40 40 -89q0 -52 -39.5 -91
t-91.5 -39q-49 0 -133 78q-57 57 -114 115l-142 137q-94 100 -94 156q0 57 94 159z" />
    <glyph glyph-name="l" unicode="l" horiz-adv-x="552" 
d="M80 306v895q0 56 35.5 91.5t91.5 35.5t91.5 -35.5t35.5 -91.5v-895q0 -51 50 -51h2q56 0 91.5 -36t35.5 -92t-36 -91.5t-91 -35.5q-127 0 -216.5 89.5t-89.5 216.5z" />
    <glyph glyph-name="m" unicode="m" horiz-adv-x="1407" 
d="M119 127v716q0 56 36 91.5t92 35.5q53 0 88 -32q70 32 145 32h5q136 0 239 -88q103 88 238 88q152 0 259 -106.5t107 -258.5v-478q0 -56 -35.5 -91.5t-91.5 -35.5t-91.5 36t-35.5 91v477q0 46 -33 79t-79 33t-78.5 -32.5t-32.5 -79.5v-477q0 -56 -36 -91.5t-91 -35.5
q-56 0 -91.5 36t-35.5 91v478q0 46 -33 78.5t-79 32.5t-78.5 -32.5t-32.5 -79.5v-477q0 -56 -36 -91.5t-91 -35.5q-56 0 -92 36t-36 91z" />
    <glyph glyph-name="n" unicode="n" horiz-adv-x="930" 
d="M119 127v716q0 56 36 91.5t92 35.5q53 0 88 -32q70 32 145 32h5q152 0 259 -106.5t107 -258.5v-478q0 -56 -36 -91.5t-91 -35.5q-56 0 -91.5 36t-35.5 91v477q0 46 -33 79t-79 33t-78.5 -32.5t-32.5 -79.5v-477q0 -56 -36 -91.5t-91 -35.5q-56 0 -92 36t-36 91z" />
    <glyph glyph-name="o" unicode="o" 
d="M40 485q0 203 141 344t344 141t344 -141t141 -344t-141 -344t-344 -141t-344 141t-141 344zM294 485q0 -96 67.5 -163t163.5 -67t163.5 67t67.5 163t-67.5 163.5t-163.5 67.5t-163.5 -67.5t-67.5 -163.5z" />
    <glyph glyph-name="p" unicode="p" horiz-adv-x="1129" 
d="M119 -231v1074q0 56 36 91.5t92 35.5q80 0 113 -66q113 66 244 66q202 0 344 -141.5t142 -343.5t-142 -343.5t-344 -141.5q-123 0 -230 58v-289q0 -56 -36 -91.5t-91 -35.5q-56 0 -92 36t-36 91zM374 485q0 -96 67 -163t163 -67t163.5 67t67.5 163t-67 163.5t-164 67.5
q-96 0 -163 -67.5t-67 -163.5z" />
    <glyph glyph-name="q" unicode="q" horiz-adv-x="1129" 
d="M40 485q0 202 141.5 343.5t343.5 141.5q131 0 244 -66q33 66 114 66q56 0 91.5 -35.5t35.5 -91.5v-1074q0 -56 -35.5 -91.5t-91.5 -35.5t-91.5 36t-35.5 91v289q-107 -58 -231 -58q-202 0 -343.5 141.5t-141.5 343.5zM294 485q0 -96 67.5 -163t163.5 -67t163.5 67
t67.5 163t-67.5 163.5t-163.5 67.5t-163.5 -67.5t-67.5 -163.5z" />
    <glyph glyph-name="r" unicode="r" horiz-adv-x="750" 
d="M119 127v716q0 56 36 91.5t92 35.5q41 0 71 -20q52 20 108 20q81 0 153 -41.5t111 -111.5q20 -36 20 -67q0 -52 -40.5 -89t-92.5 -37q-48 0 -92 46t-59 46q-52 0 -52 -52v-537q0 -56 -36 -91.5t-91 -35.5q-56 0 -92 36t-36 91z" />
    <glyph glyph-name="s" unicode="s" horiz-adv-x="707" 
d="M40 230q0 52 40.5 89t92.5 37q49 0 94.5 -50.5t73.5 -50.5q29 0 50.5 21t21.5 50t-21 50.5t-51 21.5q-119 0 -202.5 83.5t-83.5 202.5t83.5 202.5t202.5 83.5q80 0 155 -45q86 -52 86 -126q0 -52 -39 -91.5t-91 -39.5q-33 0 -70 24t-41 24q-32 0 -32 -32t33 -32
q135 0 230 -95.5t95 -230.5q0 -136 -95 -231t-231 -95q-86 0 -164 44t-118 119q-19 35 -19 67z" />
    <glyph glyph-name="t" unicode="t" horiz-adv-x="805" 
d="M40 843q0 56 35.5 91.5t91.5 35.5h52v231q0 56 35.5 91.5t91.5 35.5t91.5 -35.5t35.5 -91.5v-231h52q56 0 91.5 -35.5t35.5 -91.5t-35.5 -91.5t-91.5 -35.5h-52v-410q0 -51 50 -51h2q14 0 57.5 32t76.5 32q49 0 80 -45q27 -40 27 -91q0 -92 -78 -142q-65 -41 -163 -41
q-127 0 -216.5 89.5t-89.5 216.5v410h-52q-56 0 -91.5 35.5t-35.5 91.5z" />
    <glyph glyph-name="u" unicode="u" horiz-adv-x="890" 
d="M80 365v478q0 56 35.5 91.5t91.5 35.5t91.5 -35.5t35.5 -91.5v-477q0 -46 32.5 -78.5t78.5 -32.5t79 32.5t33 78.5v477q0 56 35.5 91.5t91.5 35.5t91.5 -35.5t35.5 -91.5v-478q0 -152 -107 -258.5t-259 -106.5t-258.5 106.5t-106.5 258.5z" />
    <glyph glyph-name="v" unicode="v" horiz-adv-x="1053" 
d="M40 847q0 52 40.5 88.5t92.5 36.5q73 0 109 -72l245 -488l244 488q36 72 109 72q52 0 93 -36.5t41 -88.5q0 -29 -16 -61l-347 -694q-13 -25 -30 -51q-37 -43 -94 -43q-56 0 -95 43q-9 10 -30 51l-347 694q-15 30 -15 61z" />
    <glyph glyph-name="w" unicode="w" horiz-adv-x="1531" 
d="M40 847q0 52 40.5 88.5t92.5 36.5q73 0 109 -72l245 -489l97 193l-92 182q-15 30 -15 61q0 52 40.5 88.5t93.5 36.5q73 0 109 -72l244 -488l244 488q36 72 110 72q52 0 92.5 -36.5t40.5 -88.5q0 -29 -16 -61l-346 -694q-13 -25 -31 -51q-37 -43 -94 -43q-56 0 -95 43
q-9 10 -29 51l-114 228l-115 -229q-10 -19 -30 -50q-37 -43 -94 -43q-56 0 -95 43q-9 10 -30 51l-347 694q-15 30 -15 61z" />
    <glyph glyph-name="x" unicode="x" horiz-adv-x="935" 
d="M40 843q0 52 39.5 91t92.5 39q55 0 95 -49l201 -240l199 240q41 49 96 49q52 0 92 -39t40 -91q0 -43 -32 -81l-230 -277l231 -277q32 -38 32 -81q0 -52 -40 -90.5t-92 -38.5q-55 0 -96 48l-200 240l-200 -240q-40 -48 -93 -48h-2q-52 0 -92 39t-40 90q0 43 31 81l230 277
l-230 277q-32 38 -32 81z" />
    <glyph glyph-name="y" unicode="y" horiz-adv-x="851" 
d="M80 365v478q0 56 35.5 91.5t91.5 35.5t91.5 -35.5t35.5 -91.5v-477q0 -46 32.5 -78.5t78.5 -32.5t79 32.5t33 78.5v477q0 56 35.5 91.5t91.5 35.5t91.5 -35.5t35.5 -91.5v-835q0 -152 -107 -259t-259 -107q-96 0 -182 49q-89 50 -133 132q-20 37 -20 68q0 51 42 82
q38 27 91 27q49 0 102.5 -51.5t99.5 -51.5t79 37t33 83q-54 -17 -112 -17q-152 0 -258.5 106.5t-106.5 258.5z" />
    <glyph glyph-name="z" unicode="z" horiz-adv-x="935" 
d="M40 127q0 43 47 100l407 489h-325q-56 0 -91.5 35.5t-35.5 91.5t36 91.5t91 35.5h588q58 0 98.5 -35t40.5 -92q0 -43 -47 -99l-408 -489h325q56 0 91.5 -36t35.5 -92t-35.5 -91.5t-91.5 -35.5h-588q-58 0 -97 34q-41 36 -41 93z" />
    <glyph glyph-name="braceleft" unicode="{" horiz-adv-x="691" 
d="M40 485q0 56 35.5 91.5t91.5 35.5q52 0 52 52v358q0 127 89.5 216.5t216.5 89.5q56 0 91.5 -35.5t35.5 -91.5t-35.5 -91.5t-91.5 -35.5q-52 0 -52 -52v-358q0 -99 -58 -179q58 -80 58 -179v-358q0 -52 52 -51q56 0 91.5 -36t35.5 -92t-35.5 -91.5t-91.5 -35.5
q-127 0 -216.5 89.5t-89.5 216.5v358q0 52 -52 52q-56 0 -91.5 35.5t-35.5 91.5z" />
    <glyph glyph-name="bar" unicode="|" horiz-adv-x="493" 
d="M119 -231v1432q0 56 36 91.5t92 35.5t91.5 -35.5t35.5 -91.5v-1432q0 -56 -36 -91.5t-91 -35.5q-56 0 -92 36t-36 91z" />
    <glyph glyph-name="braceright" unicode="}" horiz-adv-x="691" 
d="M40 -231q0 56 35.5 92t91.5 36q52 0 52 51v358q0 99 58 179q-58 80 -58 179v358q0 52 -52 52q-56 0 -91.5 35.5t-35.5 91.5t35.5 91.5t91.5 35.5q127 0 216.5 -89.5t89.5 -216.5v-358q0 -52 52 -52q56 0 91.5 -35.5t35.5 -91.5t-35.5 -91.5t-91.5 -35.5q-52 0 -52 -52
v-358q0 -127 -89.5 -216.5t-216.5 -89.5q-56 0 -91.5 36t-35.5 91z" />
    <glyph glyph-name="asciitilde" unicode="~" horiz-adv-x="813" 
d="M40 480q0 87 82 143q73 49 166 49q80 0 130 -37q36 -27 107 -81h13q35 59 104 59q53 0 92.5 -35.5t39.5 -87.5q0 -87 -83 -142q-73 -49 -165 -50q-67 0 -129 38q-10 6 -109 82h-11q-34 -61 -105 -61q-53 0 -92.5 35.5t-39.5 87.5z" />
    <glyph glyph-name="uni00A0" unicode="&#xa0;" horiz-adv-x="445" 
 />
    <glyph glyph-name="cent" unicode="&#xa2;" horiz-adv-x="947" 
d="M40 485q0 173 109.5 307.5t279.5 168.5v44q-2 133 96 132q70 0 88 -59q8 -26 7 -117q94 -20 180 -75q107 -68 107 -146q0 -52 -39 -92t-91 -40q-36 0 -82 34q-64 47 -75 53v-420q4 2 74 53q45 33 82 33q52 0 91.5 -39.5t39.5 -90.5q0 -79 -108 -147q-85 -54 -179 -74
l1 -43q2 -134 -96 -134q-69 0 -88 60q-9 29 -8 117q-170 33 -279.5 167.5t-109.5 307.5zM294 485q0 -148 135 -210v420q-135 -62 -135 -210z" />
    <glyph glyph-name="sterling" unicode="&#xa3;" horiz-adv-x="1055" 
d="M40 127q0 57 37.5 92.5t95.5 35.5q52 0 51 51v203q-98 0 -121 6q-64 17 -63 89q0 72 63 90q23 6 121 6v48q-98 0 -121 6q-64 17 -63 89q0 72 63 89q23 6 121 7v83q0 127 89.5 216.5t216.5 89.5q98 0 164 -41q78 -49 77 -142q0 -50 -27 -90q-30 -45 -79 -46
q-33 0 -77 32.5t-58 32.5q-44 0 -51 -52v-83q98 0 121 -7q64 -17 63 -89q0 -72 -63 -89q-23 -6 -121 -6v-48q98 0 121 -6q64 -17 63 -90q0 -72 -63 -89q-23 -6 -121 -6v-203q0 -26 -5 -51h414q56 0 92 -36t36 -92t-36 -91.5t-92 -35.5h-715q-57 0 -95 35t-38 92z" />
    <glyph glyph-name="yen" unicode="&#xa5;" horiz-adv-x="1173" 
d="M40 1202q0 52 40 90.5t92 38.5q57 0 98 -52l317 -407l317 407q41 52 97 52q52 0 92.5 -38.5t40.5 -90.5q0 -41 -29 -79l-283 -363q99 0 99 -96q0 -97 -136 -97q-12 0 -35.5 1t-35.5 1v-48q12 0 36.5 1t36.5 1q134 0 134 -97t-136 -98q-12 0 -35.5 1t-35.5 1v-203
q0 -55 -36 -91t-91 -36t-91 36t-36 91v203q-12 0 -36.5 -1t-36.5 -1q-134 0 -134 98q0 97 135 97q12 0 36 -1t36 -1v48q-12 0 -36.5 -1t-36.5 -1q-134 0 -134 97q0 95 99 96l-283 363q-29 38 -29 79z" />
    <glyph glyph-name="dieresis" unicode="&#xa8;" horiz-adv-x="831" 
d="M40 1112q0 66 45 111.5t111 45.5t112 -45.5t46 -111.5t-46 -112t-112 -46t-111 46t-45 112zM477 1112q0 66 45.5 111.5t111.5 45.5t111.5 -45.5t45.5 -111.5t-45.5 -112t-111.5 -46t-111.5 46t-45.5 112z" />
    <glyph glyph-name="copyright" unicode="&#xa9;" horiz-adv-x="1344" 
d="M40 664q0 263 184.5 447.5t447.5 184.5t447.5 -184.5t184.5 -447.5t-184.5 -447.5t-447.5 -184.5t-447.5 184.5t-184.5 447.5zM231 664q0 -185 128.5 -313t312.5 -128q185 0 313 128t128 313t-128 313.5t-313 128.5t-313 -128.5t-128 -313.5zM303 664q0 154 108 261.5
t261 107.5q93 0 189 -52q112 -60 112 -145q0 -52 -40 -91.5t-92 -39.5q-33 0 -84.5 37t-84.5 37q-47 0 -80.5 -34t-33.5 -81t33.5 -80.5t80.5 -33.5q33 0 84.5 36.5t84.5 36.5q52 0 92 -39.5t40 -91.5q0 -85 -112 -145q-95 -52 -189 -52q-154 0 -261.5 108t-107.5 261z" />
    <glyph glyph-name="guillemotleft" unicode="&#xab;" horiz-adv-x="894" 
d="M40 485q0 27 23 73l171 342q36 72 110 72q52 0 92.5 -36t40.5 -89q0 -29 -16 -61l-150 -301l150 -300q16 -33 16 -62q0 -52 -40.5 -88.5t-92.5 -36.5q-74 0 -110 72l-171 342q-23 46 -23 73zM418 485q0 27 23 73l171 342q36 72 109 72q52 0 93 -36t41 -89q0 -29 -16 -61
l-150 -301l150 -300q16 -33 16 -62q0 -52 -40.5 -88.5t-93.5 -36.5q-74 0 -109 72l-171 342q-23 46 -23 73z" />
    <glyph glyph-name="uni00AD" unicode="&#xad;" horiz-adv-x="691" 
d="M40 485q0 56 35.5 91.5t91.5 35.5h358q56 0 91.5 -35.5t35.5 -91.5t-35.5 -91.5t-91.5 -35.5h-358q-56 0 -91.5 35.5t-35.5 91.5z" />
    <glyph glyph-name="registered" unicode="&#xae;" horiz-adv-x="1344" 
d="M40 664q0 263 184.5 447.5t447.5 184.5t447.5 -184.5t184.5 -447.5t-184.5 -447.5t-447.5 -184.5t-447.5 184.5t-184.5 447.5zM231 664q0 -185 128.5 -313t312.5 -128q185 0 313 128t128 313t-128 313.5t-313 128.5t-313 -128.5t-128 -313.5zM433 416v483q0 45 37 76
t83 31h148q107 0 186 -67q84 -70 83 -175q0 -126 -117 -199l82 -73q38 -34 38 -75q0 -46 -38 -78.5t-85 -32.5q-46 0 -83 34l-95 85q0 -116 -119 -116q-50 0 -84 28q-36 29 -36 79zM672 725h16h16q28 -1 28 39q0 41 -43 41h-17v-80z" />
    <glyph glyph-name="acute" unicode="&#xb4;" horiz-adv-x="575" 
d="M40 1086q0 74 71 109l239 120q30 15 60 15q52 0 88.5 -40.5t36.5 -92.5q0 -74 -71 -110l-239 -119q-30 -15 -60 -15q-52 0 -88.5 40t-36.5 93z" />
    <glyph glyph-name="cedilla" unicode="&#xb8;" horiz-adv-x="670" 
d="M40 -138q0 52 40.5 89t92.5 37q48 0 91.5 -45.5t59.5 -45.5q52 0 52 51q0 52 -52 52q-56 0 -91.5 36t-35.5 91q0 56 36 92t91 36q127 0 217 -90t90 -217t-89.5 -216.5t-217.5 -89.5q-80 0 -153 41q-76 42 -112 113q-19 37 -19 66z" />
    <glyph glyph-name="guillemotright" unicode="&#xbb;" horiz-adv-x="894" 
d="M40 123q0 31 15 62l150 300l-150 301q-15 30 -15 61q0 52 40.5 88.5t92.5 36.5q73 0 109 -72l171 -342q24 -48 24 -73t-24 -73l-171 -342q-36 -72 -109 -72q-52 0 -92.5 36.5t-40.5 88.5zM418 123q0 31 15 62l150 300l-150 301q-15 30 -15 61q0 52 40.5 88.5t92.5 36.5
q73 0 109 -72l171 -342q24 -48 24 -73t-24 -73l-171 -342q-36 -72 -109 -72q-52 0 -92.5 36.5t-40.5 88.5z" />
    <glyph glyph-name="circumflex" unicode="&#x2c6;" horiz-adv-x="695" 
d="M40 1443q0 59 59 102q183 137 249 137q67 0 249 -137q59 -43 59 -102q0 -52 -37.5 -92.5t-89.5 -40.5q-37 0 -72 24l-109 72l-109 -72q-36 -24 -72 -24q-52 0 -89.5 40t-37.5 93z" />
    <glyph glyph-name="ring" unicode="&#x2da;" horiz-adv-x="610" 
d="M40 1420q0 110 78 187.5t187 77.5q110 0 187.5 -77.5t77.5 -187.5q0 -111 -77 -186t-188 -75t-188 75t-77 186zM231 1420q0 -70 74 -70t74 70q0 30 -21.5 52t-52.5 22t-52.5 -21.5t-21.5 -52.5z" />
    <glyph glyph-name="tilde" unicode="&#x2dc;" horiz-adv-x="813" 
d="M40 1494q0 87 82 143q73 49 166 49q80 0 130 -37q36 -27 107 -81h13q35 59 104 59q53 0 92.5 -35.5t39.5 -87.5q0 -87 -83 -142q-73 -49 -165 -50q-67 0 -129 38q-10 6 -109 82h-11q-34 -61 -105 -61q-53 0 -92.5 35.5t-39.5 87.5z" />
    <glyph glyph-name="afii10023" unicode="&#x401;" horiz-adv-x="1010" 
d="M119 127v1074q0 51 38.5 89t89.5 38h596q56 0 91.5 -35.5t35.5 -91.5t-35.5 -91.5t-91.5 -35.5h-469v-283h350q56 0 91.5 -35.5t35.5 -91.5t-36 -91.5t-91 -35.5h-350v-282h469q56 0 91.5 -36t35.5 -92t-35.5 -91.5t-91.5 -35.5h-596q-51 0 -89.5 38t-38.5 89zM209 1510
q0 66 45.5 111t111.5 45t111.5 -45t45.5 -111t-45.5 -112t-111.5 -46t-111.5 46t-45.5 112zM567 1510q0 66 45.5 111t111.5 45t111.5 -45t45.5 -111t-45.5 -112t-111.5 -46t-111.5 46t-45.5 112z" />
    <glyph glyph-name="afii10051" unicode="&#x402;" horiz-adv-x="1407" 
d="M40 1201q0 56 35.5 91.5t91.5 35.5h716q56 0 91.5 -35.5t35.5 -91.5t-35.5 -91.5t-91.5 -35.5h-231v-162q107 58 231 58q202 0 343.5 -141.5t141.5 -343.5t-141.5 -343.5t-343.5 -141.5q-56 0 -91.5 36t-35.5 91q0 56 35.5 92t91.5 36q96 0 163 67t67 163t-67 163.5
t-163 67.5t-163.5 -67.5t-67.5 -163.5v-358q0 -56 -35.5 -91.5t-91.5 -35.5t-91.5 36t-35.5 91v947h-231q-56 0 -91.5 35.5t-35.5 91.5z" />
    <glyph glyph-name="afii10052" unicode="&#x403;" horiz-adv-x="970" 
d="M119 127v1075q0 118 133 127q-14 -1 108 -1q-64 40 -63 116q0 74 71 109l239 120q30 15 61 15q52 0 88.5 -40.5t36.5 -92.5q0 -74 -72 -110l-233 -117h355q56 0 91.5 -35.5t35.5 -91.5t-35.5 -91.5t-91.5 -35.5h-469v-947q0 -56 -36 -91.5t-91 -35.5q-56 0 -92 36t-36 91
z" />
    <glyph glyph-name="afii10053" unicode="&#x404;" horiz-adv-x="1252" 
d="M40 664q0 277 193.5 470.5t470.5 193.5q127 0 254 -51q134 -53 215 -143q40 -45 40 -89q0 -52 -39.5 -91t-91.5 -39q-42 0 -89 39q-145 120 -289 120q-133 0 -240.5 -78t-149.5 -205h769q56 0 92 -35.5t36 -91.5t-36 -91.5t-92 -35.5h-769q41 -126 149 -204t241 -78
q145 0 289 120q47 39 89 39q52 0 91.5 -39.5t39.5 -91.5q0 -45 -40 -89q-80 -90 -215 -143q-127 -51 -254 -51q-277 0 -470.5 193.5t-193.5 470.5z" />
    <glyph glyph-name="afii10054" unicode="&#x405;" horiz-adv-x="893" 
d="M40 280q0 52 40.5 89t92.5 37q47 0 114.5 -75.5t140.5 -75.5q71 0 121 50t50 121t-50 121t-121 50q-153 0 -259.5 106.5t-106.5 258.5q0 153 106.5 259.5t259.5 106.5q95 0 182 -49q91 -50 134 -132q20 -37 20 -68q0 -52 -41 -88.5t-93 -36.5q-49 0 -102.5 60t-99.5 60
t-78.5 -33t-32.5 -79t32.5 -78.5t78.5 -32.5q177 0 301 -124t124 -301t-124 -301.5t-301 -124.5q-112 0 -214 57q-105 59 -155 156q-19 37 -19 67z" />
    <glyph glyph-name="afii10055" unicode="&#x406;" horiz-adv-x="493" 
d="M119 127v1074q0 56 36 91.5t92 35.5t91.5 -35.5t35.5 -91.5v-1074q0 -56 -36 -91.5t-91 -35.5q-56 0 -92 36t-36 91z" />
    <glyph glyph-name="afii10056" unicode="&#x407;" horiz-adv-x="493" 
d="M-89 1470q0 66 45.5 111t111.5 45t111.5 -45t45.5 -111q0 -65 -46 -111.5t-111 -46.5q-66 0 -111.5 46t-45.5 112zM119 127v1074q0 56 35.5 91.5t91.5 35.5t91.5 -35.5t35.5 -91.5v-1074q0 -56 -35.5 -91.5t-90.5 -35.5q-56 0 -92 35.5t-36 91.5zM268 1470q0 66 45.5 111
t111.5 45t111.5 -45t45.5 -111t-45.5 -112t-111.5 -46t-111.5 46t-45.5 112z" />
    <glyph glyph-name="afii10057" unicode="&#x408;" horiz-adv-x="592" 
d="M-229 -107q0 52 40.5 88.5t93.5 36.5q51 0 103 -60.5t99 -60.5q45 0 78.5 33t33.5 78v1193q0 56 35.5 91.5t91.5 35.5t91.5 -35.5t35.5 -91.5v-1193q0 -152 -107 -259t-259 -107q-97 0 -183 49q-89 51 -134 135q-19 36 -19 67z" />
    <glyph glyph-name="afii10058" unicode="&#x409;" horiz-adv-x="1648" 
d="M40 125q0 37 24 73l704 1056q50 75 114 75q54 0 93 -36.5t39 -90.5q0 -4 -1 -11t-1 -11v-329h171q177 0 301.5 -124.5t124.5 -301.5t-124.5 -301.5t-301.5 -124.5l-299 1q-50 0 -88 38t-38 89v654l-483 -725q-39 -58 -102 -58q-52 0 -92.5 37.5t-40.5 89.5zM1012 255
l171 -1q72 0 121.5 49.5t49.5 121.5t-49.5 122t-121.5 50h-171v-342z" />
    <glyph glyph-name="afii10059" unicode="&#x40a;" horiz-adv-x="1725" 
d="M119 127v1074q0 56 36 91.5t92 35.5t91.5 -35.5t35.5 -91.5v-350h461v350q0 56 36 91.5t91 35.5q56 0 92 -35.5t36 -91.5v-350h171q177 0 301 -124.5t124 -301.5t-124.5 -301.5t-301.5 -124.5l-298 1q-51 0 -89 38t-38 89v470h-461v-470q0 -56 -36 -91.5t-91 -35.5
q-56 0 -92 36t-36 91zM1090 255l170 -1q72 0 122 49.5t50 121.5t-50 122t-121 50h-171v-342z" />
    <glyph glyph-name="afii10060" unicode="&#x40b;" horiz-adv-x="1169" 
d="M40 1201q0 56 35.5 91.5t91.5 35.5h716q56 0 91.5 -35.5t35.5 -91.5t-35.5 -91.5t-91.5 -35.5h-231v-121q54 17 112 17q152 0 258.5 -106.5t106.5 -258.5v-478q0 -56 -35.5 -91.5t-91.5 -35.5t-91.5 36t-35.5 91v477q0 46 -32.5 79t-78.5 33t-79 -32.5t-33 -79.5v-477
q0 -56 -35.5 -91.5t-91.5 -35.5t-91.5 36t-35.5 91v947h-231q-56 0 -91.5 35.5t-35.5 91.5z" />
    <glyph glyph-name="afii10061" unicode="&#x40c;" horiz-adv-x="1211" 
d="M119 127v1074q0 56 36 91.5t92 35.5t91.5 -35.5t35.5 -91.5v-1074q0 -56 -36 -91.5t-91 -35.5q-56 0 -92 36t-36 91zM375 664q0 50 40 90l537 537q40 40 89 40q52 0 91.5 -39.5t39.5 -91.5q0 -49 -40 -89l-447 -447l447 -447q40 -40 40 -89q0 -52 -39.5 -91t-91.5 -39
q-49 0 -89 39l-537 537q-40 40 -40 90zM380 1444q0 74 72 109l238 120q30 15 62 15q52 0 88 -40.5t36 -92.5q0 -74 -71 -110l-239 -119q-30 -15 -61 -15q-52 0 -88.5 40t-36.5 93z" />
    <glyph glyph-name="afii10062" unicode="&#x40e;" horiz-adv-x="1173" 
d="M40 126q0 41 29 79l357 459l-357 459q-29 38 -29 79q0 52 39.5 90.5t92.5 38.5q57 0 98 -52l317 -407l317 407q41 52 97 52q52 0 92.5 -38.5t40.5 -90.5q0 -41 -29 -79l-835 -1074q-41 -52 -98 -51q-52 0 -92 38.5t-40 89.5zM278 1560q0 52 40 90.5t92 38.5q47 0 109 -61
t67 -61q6 0 68 60.5t109 60.5q52 0 93 -38.5t41 -90.5q0 -45 -54 -105q-128 -140 -260 -140q-150 0 -274 166q-30 41 -31 80z" />
    <glyph glyph-name="afii10145" unicode="&#x40f;" horiz-adv-x="1089" 
d="M119 127v1074q0 56 36 91.5t92 35.5t91.5 -35.5t35.5 -91.5v-946h342v934q0 56 35.5 91.5t91.5 35.5t91.5 -35.5t35.5 -91.5v-1062q0 -56 -35.5 -91.5t-91.5 -35.5h-171v-231q0 -56 -36 -91.5t-91 -35.5q-56 0 -91.5 36t-35.5 91v231h-171q-51 0 -89.5 38t-38.5 89z" />
    <glyph glyph-name="afii10017" unicode="&#x410;" horiz-adv-x="1411" 
d="M40 123q0 31 15 62l526 1051q47 94 124 94q78 0 125 -94l526 -1051q16 -33 16 -62q0 -52 -40.5 -88.5t-93.5 -36.5q-74 0 -109 72l-144 288h-559l-144 -288q-36 -72 -109 -72q-52 0 -92.5 36.5t-40.5 88.5zM554 612h303l-152 304z" />
    <glyph glyph-name="afii10018" unicode="&#x411;" horiz-adv-x="1010" 
d="M119 127v1074q0 52 38 89.5t90 37.5h596q56 0 91.5 -35.5t35.5 -91.5t-35.5 -91.5t-91.5 -35.5h-469v-223h171q177 0 301 -124.5t124 -301.5t-124.5 -301.5t-301.5 -124.5l-297 1q-51 0 -89.5 38t-38.5 89zM374 255l170 -1q72 0 122 49.5t50 121.5t-50 122t-121 50h-171
v-342z" />
    <glyph glyph-name="afii10019" unicode="&#x412;" horiz-adv-x="1010" 
d="M119 127v1074q0 52 38 89.5t90 37.5h298q152 0 259 -107t107 -259q0 -126 -77 -224q136 -127 136 -313q0 -177 -124.5 -301.5t-301.5 -124.5l-297 1q-51 0 -89.5 38t-38.5 89zM374 255l170 -1q72 0 122 49.5t50 121.5t-50 122t-121 50h-171v-342zM374 851h171q45 0 78 33
t33 78t-33 78.5t-78 33.5h-171v-223z" />
    <glyph glyph-name="afii10020" unicode="&#x413;" horiz-adv-x="970" 
d="M119 127v1074q0 51 38.5 89t89.5 38h596q56 0 91.5 -35.5t35.5 -91.5t-35.5 -91.5t-91.5 -35.5h-469v-947q0 -56 -36 -91.5t-91 -35.5q-56 0 -92 36t-36 91z" />
    <glyph glyph-name="afii10021" unicode="&#x414;" horiz-adv-x="1410" 
d="M40 124q0 31 24 80l517 1032q47 94 124 94q78 0 125 -94l516 -1032q24 -49 24 -80q0 -55 -39 -90t-95 -35h-1062q-56 0 -94 34q-41 36 -40 91zM375 255h661l-331 661z" />
    <glyph glyph-name="afii10022" unicode="&#x415;" horiz-adv-x="1010" 
d="M119 127v1074q0 51 38.5 89t89.5 38h596q56 0 91.5 -35.5t35.5 -91.5t-35.5 -91.5t-91.5 -35.5h-469v-283h350q56 0 91.5 -35.5t35.5 -91.5t-36 -91.5t-91 -35.5h-350v-282l469 -1q56 0 91.5 -36t35.5 -92t-36 -91.5t-92 -35.5l-595 1q-51 0 -89.5 38t-38.5 89z" />
    <glyph glyph-name="afii10024" unicode="&#x416;" horiz-adv-x="1929" 
d="M40 128q0 49 40 89l447 447l-447 447q-40 40 -40 89q0 52 39.5 91.5t90.5 39.5q49 0 89 -40l537 -537q40 -40 40 -91q0 -49 -40 -89l-537 -537q-40 -40 -89 -39q-52 0 -91 39t-39 91zM837 127v1074q0 56 36 91.5t92 35.5t91.5 -35.5t35.5 -91.5v-1074q0 -56 -36 -91.5
t-91 -35.5q-56 0 -92 36t-36 91zM1094 664q0 50 39 90l537 537q40 40 88 40q52 0 92 -39.5t40 -91.5q0 -49 -40 -89l-447 -447l447 -447q40 -40 40 -89q0 -52 -40 -91t-92 -39q-49 0 -88 39l-537 537q-40 40 -39 90z" />
    <glyph glyph-name="afii10025" unicode="&#x417;" horiz-adv-x="931" 
d="M40 425q0 56 35.5 92t91.5 36t91.5 -36t35.5 -92q0 -71 50 -121t121 -50t121.5 50t50.5 121q0 72 -49.5 122t-121.5 50q-56 0 -91.5 35.5t-35.5 91.5t35.5 91.5t90.5 35.5q46 0 79 32.5t33 78.5t-33 79t-79 33t-78.5 -33t-32.5 -79q0 -56 -36 -91.5t-91 -35.5
q-56 0 -92 36t-36 91q0 153 107 259.5t260 106.5q152 0 259 -107t107 -259q0 -126 -77 -224q137 -127 137 -313q0 -177 -124.5 -301.5t-302.5 -124.5q-177 0 -301 124t-124 302z" />
    <glyph glyph-name="afii10026" unicode="&#x418;" horiz-adv-x="1332" 
d="M119 128q0 4 1.5 11t1.5 11v1051q0 56 35.5 91.5t91.5 35.5t91.5 -35.5t35.5 -91.5v-703l594 763q53 68 112 69q55 0 93 -38t38 -92q0 -4 -1 -10.5t-1 -10.5v-1052q0 -56 -35.5 -91.5t-91.5 -35.5t-91.5 36t-35.5 91v703l-594 -763q-53 -68 -112 -69q-55 0 -93.5 37.5
t-38.5 92.5z" />
    <glyph glyph-name="afii10027" unicode="&#x419;" horiz-adv-x="1332" 
d="M119 128q0 4 1.5 11t1.5 11v1051q0 56 35.5 91.5t91.5 35.5t91.5 -35.5t35.5 -91.5v-703l594 763q53 68 112 69q55 0 93 -38t38 -92q0 -4 -1 -10.5t-1 -10.5v-1052q0 -56 -35.5 -91.5t-91.5 -35.5t-91.5 36t-35.5 91v703l-594 -763q-53 -68 -112 -69q-55 0 -93.5 37.5
t-38.5 92.5zM358 1560q0 52 39.5 90.5t92.5 38.5q47 0 109 -61t66 -61q6 0 68 60.5t109 60.5q52 0 93.5 -38.5t41.5 -90.5q0 -45 -54 -105q-128 -140 -261 -140q-150 0 -275 166q-29 39 -29 80z" />
    <glyph glyph-name="afii10028" unicode="&#x41a;" horiz-adv-x="1211" 
d="M119 127v1074q0 56 36 91.5t92 35.5t91.5 -35.5t35.5 -91.5v-1074q0 -56 -36 -91.5t-91 -35.5q-56 0 -92 36t-36 91zM375 663q0 52 40 91l537 537q40 40 89 40q52 0 91.5 -39.5t39.5 -91.5q0 -49 -40 -89l-447 -447l447 -447q40 -40 40 -89q0 -52 -39.5 -91t-91.5 -39
q-49 0 -89 39l-537 537q-40 40 -40 89z" />
    <glyph glyph-name="afii10029" unicode="&#x41b;" horiz-adv-x="1411" 
d="M40 123q0 31 15 62l526 1051q47 94 124 94q78 0 125 -94l526 -1051q16 -33 16 -62q0 -52 -40.5 -88.5t-93.5 -36.5q-74 0 -109 72l-424 846l-423 -846q-36 -72 -109 -72q-52 0 -92.5 36.5t-40.5 88.5z" />
    <glyph glyph-name="afii10030" unicode="&#x41c;" horiz-adv-x="1528" 
d="M40 122q0 14 4 33l234 1053q6 28 24 69q37 52 106 52q82 0 123 -97l233 -543l233 543q41 97 124 97q68 0 105 -52q14 -20 25 -69l234 -1053q4 -19 4 -33q0 -53 -38.5 -87.5t-92.5 -34.5q-99 0 -121 99l-154 689l-192 -450q-43 -100 -127 -100t-126 100l-193 450
l-153 -689q-22 -99 -121 -99q-54 0 -92.5 34t-38.5 88z" />
    <glyph glyph-name="afii10031" unicode="&#x41d;" horiz-adv-x="1208" 
d="M119 127v1074q0 56 36 91.5t92 35.5t91.5 -35.5t35.5 -91.5v-410h461v410q0 56 36 91.5t91 35.5q56 0 92 -35.5t36 -91.5v-1074q0 -56 -36 -91.5t-92 -35.5t-91.5 36t-35.5 91v410h-461v-410q0 -56 -36 -91.5t-91 -35.5q-56 0 -92 36t-36 91z" />
    <glyph glyph-name="afii10032" unicode="&#x41e;" horiz-adv-x="1407" 
d="M40 664q0 277 193.5 470.5t470.5 193.5t470.5 -193.5t193.5 -470.5t-193.5 -470.5t-470.5 -193.5t-470.5 193.5t-193.5 470.5zM294 664q0 -170 120 -289.5t290 -119.5t289.5 119.5t119.5 289.5t-119.5 290t-289.5 120t-290 -120t-120 -290z" />
    <glyph glyph-name="afii10033" unicode="&#x41f;" horiz-adv-x="1089" 
d="M119 127v1074q0 51 38.5 89t89.5 38h597q55 0 90.5 -35.5t35.5 -89.5v-1076q0 -56 -35.5 -91.5t-91.5 -35.5t-91.5 36t-35.5 91v947h-342v-947q0 -56 -36 -91.5t-91 -35.5q-56 0 -92 36t-36 91z" />
    <glyph glyph-name="afii10034" unicode="&#x420;" horiz-adv-x="1010" 
d="M119 127v1074q0 52 38 89.5t90 37.5h298q177 0 301 -124t124 -301t-124 -301.5t-301 -124.5h-44q-56 0 -91.5 36t-35.5 91q0 56 35.5 92t91.5 36h44q72 0 121.5 49.5t49.5 121.5t-50 121.5t-121 49.5h-171v-947q0 -56 -36 -91.5t-91 -35.5q-56 0 -92 35.5t-36 91.5z" />
    <glyph glyph-name="afii10035" unicode="&#x421;" horiz-adv-x="1252" 
d="M40 664q0 277 193.5 470.5t470.5 193.5q230 0 412 -143q97 -76 97 -140q0 -52 -39.5 -91t-91.5 -39q-42 0 -89 39q-18 18 -39 35q-110 85 -250 85q-170 0 -290 -120t-120 -290t120 -289.5t290 -119.5q140 0 250 85q10 10 39 35q46 39 89 39q52 0 91.5 -39.5t39.5 -91.5
q0 -64 -97 -140q-182 -143 -412 -143q-277 0 -470.5 193.5t-193.5 470.5z" />
    <glyph glyph-name="afii10036" unicode="&#x422;" horiz-adv-x="1010" 
d="M40 1201q0 56 35.5 91.5t91.5 35.5h716q56 0 91.5 -35.5t35.5 -91.5t-35.5 -91.5t-91.5 -35.5h-231v-947q0 -56 -35.5 -91.5t-91.5 -35.5t-91.5 36t-35.5 91v947h-231q-56 0 -91.5 35.5t-35.5 91.5z" />
    <glyph glyph-name="afii10037" unicode="&#x423;" horiz-adv-x="1173" 
d="M40 126q0 41 29 79l357 459l-357 459q-29 38 -29 79q0 52 39.5 90.5t92.5 38.5q57 0 98 -52l317 -407l317 407q41 52 97 52q52 0 92.5 -38.5t40.5 -90.5q0 -41 -29 -79l-835 -1074q-41 -52 -98 -51q-52 0 -92 38.5t-40 89.5z" />
    <glyph glyph-name="afii10038" unicode="&#x424;" horiz-adv-x="1407" 
d="M40 664q0 198 175 332q148 113 362 144v61q0 56 35.5 91.5t91.5 35.5t91.5 -35.5t35.5 -91.5v-61q214 -30 362 -144q175 -135 175 -332t-175 -332q-148 -114 -362 -144v-61q0 -56 -35.5 -91.5t-91.5 -35.5t-91.5 36t-35.5 91v61q-214 30 -362 144q-175 134 -175 332z
M294 664q0 -82 104 -148q84 -53 179 -71v439q-95 -18 -179 -72q-103 -66 -104 -148zM831 445q95 18 179 71q103 66 103 148t-103 148q-84 53 -179 72v-439z" />
    <glyph glyph-name="afii10039" unicode="&#x425;" horiz-adv-x="1173" 
d="M40 126q0 41 29 79l357 459l-357 459q-29 38 -29 79q0 52 39.5 90.5t92.5 38.5q57 0 98 -52l317 -407l317 407q41 52 97 52q52 0 92.5 -39t40.5 -90q0 -41 -29 -79l-357 -459l357 -459q29 -38 29 -79q0 -52 -40 -90t-93 -38q-56 0 -97 51l-317 408l-317 -408
q-41 -52 -98 -51q-52 0 -92 38.5t-40 89.5z" />
    <glyph glyph-name="afii10040" unicode="&#x426;" horiz-adv-x="1089" 
d="M119 127v1074q0 56 36 91.5t92 35.5t91.5 -35.5t35.5 -91.5v-946h342v946q0 56 35.5 91.5t91.5 35.5t91.5 -35.5t35.5 -91.5v-1432q0 -56 -35.5 -91.5t-91.5 -35.5t-91.5 36t-35.5 91v231h-469q-51 0 -89.5 38t-38.5 89z" />
    <glyph glyph-name="afii10041" unicode="&#x427;" horiz-adv-x="1129" 
d="M40 932v269q0 56 35.5 91.5t91.5 35.5t91.5 -35.5t35.5 -91.5v-269q0 -58 41.5 -99.5t99.5 -41.5h321v410q0 56 35.5 91.5t91.5 35.5t91.5 -35.5t35.5 -91.5v-1074q0 -56 -35.5 -91.5t-91.5 -35.5t-91.5 36t-35.5 91v410h-321q-164 0 -279.5 115.5t-115.5 279.5z" />
    <glyph glyph-name="afii10042" unicode="&#x428;" horiz-adv-x="1686" 
d="M119 127v1074q0 56 36 91.5t92 35.5t91.5 -35.5t35.5 -91.5v-946h342v946q0 56 35.5 91.5t91.5 35.5t91.5 -35.5t35.5 -91.5v-946h342v946q0 56 36 91.5t92 35.5t91.5 -35.5t35.5 -91.5v-1074q0 -55 -35.5 -91t-90.5 -36h-1194q-56 0 -92 36t-36 91z" />
    <glyph glyph-name="afii10043" unicode="&#x429;" horiz-adv-x="1686" 
d="M119 127v1074q0 56 36 91.5t92 35.5t91.5 -35.5t35.5 -91.5v-946h342v946q0 56 35.5 91.5t91.5 35.5t91.5 -35.5t35.5 -91.5v-946h342v946q0 56 36 91.5t92 35.5t91.5 -35.5t35.5 -91.5v-1432q0 -56 -36 -91.5t-91 -35.5q-56 0 -92 36t-36 91v231h-1065q-51 0 -89.5 38
t-38.5 89z" />
    <glyph glyph-name="afii10044" unicode="&#x42a;" horiz-adv-x="1487" 
d="M0 1201q0 56 36 91.5t91 35.5h597q52 0 89.5 -37.5t37.5 -89.5v-350h171q177 0 301.5 -124.5t124.5 -301.5t-124.5 -301.5t-302.5 -124.5l-297 1q-51 0 -89 38t-38 89v947h-470q-56 0 -91.5 35.5t-35.5 91.5zM851 255l170 -1q72 0 122 49.5t50 121.5t-49.5 122t-121.5 50
h-171v-342z" />
    <glyph glyph-name="afii10045" unicode="&#x42b;" horiz-adv-x="1387" 
d="M119 127v1074q0 56 36 91.5t92 35.5t91.5 -35.5t35.5 -91.5v-350h171q177 0 301 -124.5t124 -301.5t-124.5 -301.5t-301.5 -124.5l-297 1q-51 0 -89.5 38t-38.5 89zM374 255l170 -1q72 0 122 49.5t50 121.5t-50 122t-121 50h-171v-342zM1014 127v1074q0 56 36 91.5
t91 35.5q56 0 92 -35.5t36 -91.5v-1074q0 -56 -36 -91.5t-92 -35.5t-91.5 36t-35.5 91z" />
    <glyph glyph-name="afii10046" unicode="&#x42c;" horiz-adv-x="1010" 
d="M119 127v1074q0 56 36 91.5t92 35.5t91.5 -35.5t35.5 -91.5v-350h171q177 0 301 -124.5t124 -301.5t-124.5 -301.5t-301.5 -124.5l-297 1q-51 0 -89.5 38t-38.5 89zM374 255l170 -1q72 0 122 49.5t50 121.5t-50 122t-121 50h-171v-342z" />
    <glyph glyph-name="afii10047" unicode="&#x42d;" horiz-adv-x="1252" 
d="M40 283q0 52 39 91.5t91 39.5q42 0 89 -39q145 -120 290 -120q133 0 240.5 77.5t149.5 204.5h-770q-56 0 -91.5 35.5t-35.5 91.5t36 91.5t91 35.5h770q-41 126 -149 204.5t-241 78.5q-145 0 -290 -120q-47 -39 -89 -39q-52 0 -91 39t-39 91q0 45 40 89q80 90 214 143
q127 51 255 51q276 0 470 -194t194 -470q0 -277 -193.5 -470.5t-470.5 -193.5q-127 0 -255 51q-134 53 -214 143q-40 45 -40 89z" />
    <glyph glyph-name="afii10048" unicode="&#x42e;" horiz-adv-x="1845" 
d="M119 127v1074q0 56 36 91.5t92 35.5t91.5 -35.5t35.5 -91.5v-410h115q45 235 229 386t423 151q277 0 470.5 -193.5t193.5 -470.5t-193.5 -470.5t-470.5 -193.5q-239 0 -423 151t-229 386h-115v-410q0 -56 -36 -91.5t-91 -35.5q-56 0 -92 36t-36 91zM732 664
q0 -170 119.5 -289.5t289.5 -119.5t290 119.5t120 289.5t-119.5 290t-290.5 120q-170 0 -289.5 -120t-119.5 -290z" />
    <glyph glyph-name="afii10049" unicode="&#x42f;" horiz-adv-x="1012" 
d="M40 128q0 49 40 89l275 275q-139 38 -226 152.5t-87 258.5q0 177 124 301t302 124h299q55 0 90.5 -35.5t35.5 -89.5v-1076q0 -56 -35.5 -91.5t-91.5 -35.5t-91.5 36t-35.5 91v290l-380 -380q-40 -40 -89 -39q-52 0 -91 39t-39 91zM297 903q0 -72 49.5 -121.5t121.5 -49.5
h155q-1 0 16 2v340h-171q-72 0 -121.5 -50t-49.5 -121z" />
    <glyph glyph-name="afii10065" unicode="&#x430;" horiz-adv-x="851" 
d="M40 326q0 151 110 242q102 84 256 84q62 0 111 -16v8q0 46 -32.5 79t-78.5 33q-33 0 -87.5 -39.5t-95.5 -39.5q-45 0 -79 28q-37 30 -37 74q0 41 40 84q101 107 259 107q152 0 258.5 -107t106.5 -259v-477q0 -56 -35.5 -91.5t-91.5 -35.5q-52 0 -88 32q-61 -32 -150 -32
q-154 0 -256 84q-110 91 -110 242zM294 326q0 -46 32.5 -78.5t79.5 -32.5q46 0 78.5 32.5t32.5 78.5t-32.5 78.5t-78.5 32.5t-79 -32.5t-33 -78.5z" />
    <glyph glyph-name="afii10066" unicode="&#x431;" 
d="M40 485q0 352 245.5 597.5t597.5 245.5q56 0 91.5 -35.5t35.5 -91.5t-35.5 -91.5t-91.5 -35.5q-184 0 -334 -104q195 -10 328 -150t133 -335q0 -202 -141.5 -343.5t-343.5 -141.5t-343.5 141.5t-141.5 343.5zM294 485q0 -96 67.5 -163t163.5 -67t163.5 67t67.5 163
t-67.5 163.5t-163.5 67.5t-163.5 -67.5t-67.5 -163.5z" />
    <glyph glyph-name="afii10067" unicode="&#x432;" horiz-adv-x="860" 
d="M119 127v716q0 51 38.5 89t89.5 38h223q124 0 213 -80q93 -84 93 -206q0 -79 -40 -144q85 -91 85 -214q0 -141 -106 -235q-102 -91 -245 -92l-223 1q-51 0 -89.5 38t-38.5 89zM374 255l96 -1q35 0 64 18q32 21 32 54t-32 53q-29 18 -64 19h-96v-143zM374 652h96
q52 0 52 32t-52 32h-96v-64z" />
    <glyph glyph-name="afii10068" unicode="&#x433;" horiz-adv-x="860" 
d="M119 127v716q0 51 38.5 89t89.5 38h447q56 0 91.5 -35.5t35.5 -91.5t-35.5 -91.5t-91.5 -35.5h-320v-589q0 -56 -36 -91.5t-91 -35.5q-56 0 -92 36t-36 91z" />
    <glyph glyph-name="afii10069" unicode="&#x434;" horiz-adv-x="1142" 
d="M40 125q0 33 29 85l380 674q49 87 122 88q73 0 123 -88l379 -674q29 -52 29 -85q0 -56 -39 -91.5t-95 -35.5h-794q-56 0 -95 36t-39 91zM386 255h370l-185 329z" />
    <glyph glyph-name="afii10070" unicode="&#x435;" horiz-adv-x="1003" 
d="M40 485q0 202 141.5 343.5t343.5 141.5q188 0 344 -144q93 -86 93 -171q0 -65 -63 -101l-477 -275q49 -25 103 -24q83 0 138 46q37 42 73 85q50 49 95 49q52 0 92.5 -37t40.5 -89q0 -29 -19 -66q-56 -110 -177 -178q-116 -65 -243 -65q-202 0 -343.5 141.5t-141.5 343.5z
M295 499l333 193q-49 24 -103 24q-91 0 -158 -62.5t-72 -154.5z" />
    <glyph glyph-name="afii10072" unicode="&#x436;" horiz-adv-x="1656" 
d="M40 129q0 54 44 94l296 262l-296 263q-45 40 -44 93q0 52 39 92t90 40q46 0 85 -34l397 -354q48 -42 50 -93v351q0 56 36 91.5t92 35.5t91.5 -35.5t35.5 -91.5v-351q2 51 50 93l397 354q38 34 84 34q52 0 91 -40t39 -92q0 -53 -45 -93l-295 -263l295 -262q45 -40 45 -94
q0 -52 -39 -91.5t-91 -39.5q-46 0 -84 34l-397 353q-48 42 -50 93v-351q0 -56 -36 -91.5t-91 -35.5q-56 0 -92 36t-36 91v351q-3 -51 -50 -93l-397 -353q-38 -34 -85 -34q-52 0 -90.5 39.5t-38.5 91.5z" />
    <glyph glyph-name="afii10073" unicode="&#x437;" horiz-adv-x="781" 
d="M40 325q0 56 35.5 92t91.5 36t91.5 -36t35.5 -92q0 -33 34 -53q29 -18 63 -18q35 0 64 18q33 21 33 53q0 33 -33 54q-29 18 -64 19q-87 0 -87 127t87 127q52 0 52 32t-52 32q-41 0 -51 -31q-14 -51 -19 -57q-25 -31 -109 -31q-127 0 -128 87q0 122 93 206q90 80 214 80
t213 -80q93 -84 94 -206q0 -79 -42 -144q86 -92 86 -215q0 -141 -106 -235q-103 -91 -245 -91q-143 0 -245 91q-107 95 -106 235z" />
    <glyph glyph-name="afii10074" unicode="&#x438;" horiz-adv-x="1123" 
d="M119 129q0 4 1.5 10.5t1.5 10.5v693q0 56 35.5 91.5t91.5 35.5t91.5 -35.5t35.5 -91.5v-377l388 444q54 62 109 62t93.5 -38.5t38.5 -92.5q0 -4 -1.5 -10.5t-1.5 -10.5v-693q0 -56 -35.5 -91.5t-91.5 -35.5t-91.5 36t-35.5 91v377l-389 -444q-54 -62 -108 -62
q-55 0 -93.5 38.5t-38.5 92.5z" />
    <glyph glyph-name="afii10075" unicode="&#x439;" horiz-adv-x="1123" 
d="M119 129q0 4 1.5 10.5t1.5 10.5v693q0 56 35.5 91.5t91.5 35.5t91.5 -35.5t35.5 -91.5v-377l388 444q54 62 109 62t93.5 -38.5t38.5 -92.5q0 -4 -1.5 -10.5t-1.5 -10.5v-693q0 -56 -35.5 -91.5t-91.5 -35.5t-91.5 36t-35.5 91v377l-389 -444q-54 -62 -108 -62
q-55 0 -93.5 38.5t-38.5 92.5zM254 1202q0 52 39.5 90.5t92.5 38.5q47 0 109 -61t66 -61q6 0 68 60.5t109 60.5q52 0 93 -38.5t41 -90.5q0 -45 -54 -105q-128 -140 -260 -140q-150 0 -275 166q-29 39 -29 80z" />
    <glyph glyph-name="afii10076" unicode="&#x43a;" horiz-adv-x="1075" 
d="M119 127v716q0 56 36 91.5t92 35.5t91.5 -35.5t35.5 -91.5v-349q3 49 47 88l-7 -5q1 1 407 362q38 34 84 34q52 0 91.5 -40t39.5 -92t-46 -93l-296 -263l296 -262q46 -41 46 -94q0 -52 -39.5 -91.5t-91.5 -39.5q-46 0 -84 34l-400 356q-44 39 -47 88v-349
q0 -56 -36 -91.5t-91 -35.5q-56 0 -92 36t-36 91z" />
    <glyph glyph-name="afii10077" unicode="&#x43b;" horiz-adv-x="1143" 
d="M40 124q0 33 18 65l391 695q49 87 123 88q73 0 122 -88l391 -695q19 -34 19 -65q0 -52 -40.5 -89t-93.5 -37q-69 0 -106 67l-292 519l-292 -519q-37 -67 -107 -67q-52 0 -92.5 37t-40.5 89z" />
    <glyph glyph-name="afii10078" unicode="&#x43c;" horiz-adv-x="1230" 
d="M40 122q0 17 5 36l173 694q7 29 25 67q37 52 105 52q77 0 123 -93l145 -299l144 299q45 93 122 93q68 0 106 -52q12 -17 24 -67l174 -694q5 -19 5 -36q0 -53 -39 -88t-93 -35q-95 0 -120 97l-94 375l-105 -218q-46 -95 -124 -96q-80 0 -126 96l-105 218l-94 -375
q-25 -97 -120 -97q-54 0 -92.5 35t-38.5 88z" />
    <glyph glyph-name="afii10079" unicode="&#x43d;" horiz-adv-x="1029" 
d="M119 127v716q0 56 36 91.5t92 35.5t91.5 -35.5t35.5 -91.5v-231h282v231q0 56 36 91.5t91 35.5q56 0 92 -35.5t36 -91.5v-716q0 -56 -36 -91.5t-92 -35.5t-91.5 36t-35.5 91v231h-282v-231q0 -56 -36 -91.5t-91 -35.5q-56 0 -92 36t-36 91z" />
    <glyph glyph-name="afii10080" unicode="&#x43e;" 
d="M40 485q0 202 141.5 343.5t343.5 141.5t343.5 -141.5t141.5 -343.5t-141.5 -343.5t-343.5 -141.5t-343.5 141.5t-141.5 343.5zM294 485q0 -96 67.5 -163t163.5 -67t163.5 67t67.5 163t-67.5 163.5t-163.5 67.5t-163.5 -67.5t-67.5 -163.5z" />
    <glyph glyph-name="afii10081" unicode="&#x43f;" horiz-adv-x="940" 
d="M119 127v716q0 51 38.5 89t89.5 38h447q55 0 91 -35t36 -90v-718q0 -56 -35.5 -91.5t-91.5 -35.5t-92 36t-36 91v589h-192v-589q0 -56 -36 -91.5t-91 -35.5q-56 0 -92 36t-36 91z" />
    <glyph glyph-name="afii10082" unicode="&#x440;" horiz-adv-x="1129" 
d="M119 -231v1074q0 56 36 91.5t92 35.5q80 0 113 -66q113 66 244 66q202 0 344 -141.5t142 -343.5t-142 -343.5t-344 -141.5q-123 0 -230 58v-289q0 -56 -36 -91.5t-91 -35.5q-56 0 -92 36t-36 91zM374 485q0 -96 67 -163t163 -67t163.5 67t67.5 163t-67 163.5t-164 67.5
q-96 0 -163 -67.5t-67 -163.5z" />
    <glyph glyph-name="afii10083" unicode="&#x441;" horiz-adv-x="947" 
d="M40 485q0 202 141.5 343.5t343.5 141.5q214 0 343 -141q39 -44 39 -89q0 -52 -39 -92t-91 -40q-30 0 -106.5 54t-145.5 54q-96 0 -163.5 -67.5t-67.5 -163.5t67.5 -163t163.5 -67q69 0 145 53t106 53q52 0 91.5 -39.5t39.5 -90.5q0 -45 -40 -89q-128 -142 -342 -142
q-202 0 -343.5 141.5t-141.5 343.5z" />
    <glyph glyph-name="afii10084" unicode="&#x442;" horiz-adv-x="870" 
d="M40 843q0 56 35.5 91.5t91.5 35.5h537q56 0 91.5 -35.5t35.5 -91.5t-35.5 -91.5t-91.5 -35.5h-142v-589q0 -56 -35 -91.5t-92 -35.5q-56 0 -91.5 36t-35.5 91v589h-141q-56 0 -91.5 35.5t-35.5 91.5z" />
    <glyph glyph-name="afii10085" unicode="&#x443;" horiz-adv-x="930" 
d="M80 366v477q0 56 35.5 91.5t91.5 35.5t91.5 -35.5t35.5 -91.5v-477q0 -45 33 -78t78 -33t78.5 33t33.5 78v477q0 56 35.5 91.5t91.5 35.5t91.5 -35.5t35.5 -91.5v-835q0 -152 -107 -259t-259 -107q-96 0 -182 49q-89 50 -133 132q-20 37 -20 68q0 52 40.5 89t92.5 37
q49 0 102 -60t100 -60q46 0 79 37t33 83q-54 -17 -112 -17q-152 0 -258.5 107t-106.5 259z" />
    <glyph glyph-name="afii10086" unicode="&#x444;" horiz-adv-x="1288" 
d="M40 485q0 181 90 322q104 163 276 163q59 0 111 -20v251q0 56 36 91.5t91 35.5q56 0 91.5 -35.5t35.5 -91.5v-251q52 21 112 20q171 0 275 -163q91 -141 91 -322t-91 -322q-104 -163 -275 -163q-59 0 -112 21v-252q0 -56 -35.5 -91.5t-91.5 -35.5t-91.5 36t-35.5 91v252
q-52 -21 -111 -21q-171 0 -276 163q-91 142 -90 322zM294 485q0 -146 74 -211q23 -20 38 -19q14 0 37 19q74 65 74 211q0 151 -77 213q-21 17 -34 18q-13 0 -35 -18q-77 -62 -77 -213zM771 485q0 -146 74 -211q23 -20 38 -19q14 0 37 19q74 65 74 211q0 151 -77 213
q-21 17 -34 18q-13 0 -34 -18q-77 -62 -78 -213z" />
    <glyph glyph-name="afii10087" unicode="&#x445;" horiz-adv-x="935" 
d="M40 843q0 52 39.5 91t92.5 39q55 0 95 -49l201 -240l199 240q41 49 96 49q52 0 92 -39t40 -91q0 -43 -32 -81l-230 -277l231 -277q32 -38 32 -81q0 -52 -40 -90.5t-92 -38.5q-55 0 -96 48l-200 240l-200 -240q-41 -49 -95 -48q-52 0 -92 39t-40 90q0 43 31 81l230 277
l-230 277q-32 38 -32 81z" />
    <glyph glyph-name="afii10088" unicode="&#x446;" horiz-adv-x="940" 
d="M119 127v716q0 56 36 91.5t92 35.5t91.5 -35.5t35.5 -91.5v-588h192v588q0 56 36 91.5t92 35.5t91.5 -35t35.5 -92v-954q0 -56 -35.5 -92t-91.5 -36t-92 36t-36 92v111h-319q-51 0 -89.5 38t-38.5 89z" />
    <glyph glyph-name="afii10089" unicode="&#x447;" horiz-adv-x="950" 
d="M40 664v179q0 56 35.5 91.5t91.5 35.5t91.5 -35.5t35.5 -91.5v-179q0 -52 74 -52h209v231q0 56 35.5 91.5t91.5 35.5t91.5 -35.5t35.5 -91.5v-716q0 -56 -35.5 -91.5t-91.5 -35.5t-91.5 36t-35.5 91v231h-209q-133 0 -229 86q-99 89 -99 220z" />
    <glyph glyph-name="afii10090" unicode="&#x448;" horiz-adv-x="1387" 
d="M119 127v716q0 56 36 91.5t92 35.5t91.5 -35.5t35.5 -91.5v-588h193l-1 588q0 56 36 91.5t92 35.5t91.5 -35t35.5 -92v-588h193v588q0 56 36 91.5t91 35.5q56 0 92 -35.5t36 -91.5v-716q0 -55 -35.5 -91t-90.5 -36h-896q-56 0 -92 36t-36 91z" />
    <glyph glyph-name="afii10091" unicode="&#x449;" horiz-adv-x="1387" 
d="M119 127v716q0 56 36 91.5t92 35.5t91.5 -35.5t35.5 -91.5v-588h193v588q0 56 35.5 91.5t91.5 35.5t91.5 -35.5t35.5 -91.5v-588h193v588q0 56 36 91.5t91 35.5q56 0 92 -35.5t36 -91.5v-954q0 -56 -36 -92t-92 -36t-91.5 36t-35.5 92v111h-767q-51 0 -89.5 38t-38.5 89z
" />
    <glyph glyph-name="afii10092" unicode="&#x44a;" horiz-adv-x="1189" 
d="M0 843q0 56 36 91.5t91 35.5h447q51 0 89 -38t38 -89v-191h98q142 0 244 -91q106 -95 106 -235q0 -142 -106 -236q-102 -91 -245 -91l-224 1q-50 0 -88.5 38t-38.5 89v589h-320q-56 0 -91.5 35.5t-35.5 91.5zM701 255l97 -1q35 0 63 18q34 21 34 54t-34 53q-29 18 -62 19
h-98v-143z" />
    <glyph glyph-name="afii10093" unicode="&#x44b;" horiz-adv-x="1268" 
d="M119 127v716q0 56 36 91.5t92 35.5t91.5 -35.5t35.5 -91.5v-191h96q142 0 244 -91q107 -95 107 -235q0 -141 -106 -235q-102 -91 -245 -92l-223 1q-51 0 -89.5 38t-38.5 89zM374 255l96 -1q35 0 64 18q32 21 32 54t-32 53q-29 18 -64 19h-96v-143zM895 127v716
q0 56 35.5 91.5t91.5 35.5t91.5 -35.5t35.5 -91.5v-716q0 -56 -35.5 -91.5t-91.5 -35.5t-91.5 36t-35.5 91z" />
    <glyph glyph-name="afii10094" unicode="&#x44c;" horiz-adv-x="860" 
d="M119 127v716q0 56 36 91.5t92 35.5t91.5 -35.5t35.5 -91.5v-191h96q142 0 244 -91q107 -95 107 -235q0 -141 -106 -235q-102 -91 -245 -92l-223 1q-51 0 -89.5 38t-38.5 89zM374 255l96 -1q35 0 64 18q32 21 32 54t-32 53q-29 18 -64 19h-96v-143z" />
    <glyph glyph-name="afii10095" unicode="&#x44d;" horiz-adv-x="1003" 
d="M40 309q0 52 40.5 89t92.5 37q49 0 91 -47l77 -87q56 -47 138 -46q54 0 102 24l-475 275q-64 37 -65 101q0 85 93 171q156 144 345 144q202 0 343.5 -141.5t141.5 -343.5t-141.5 -343.5t-343.5 -141.5q-127 0 -244 65q-120 68 -176 178q-19 37 -19 66zM376 692l333 -193
q-6 91 -72.5 154t-157.5 63q-54 0 -103 -24z" />
    <glyph glyph-name="afii10096" unicode="&#x44e;" horiz-adv-x="1407" 
d="M119 127v716q0 56 36 91.5t92 35.5t91.5 -35.5t35.5 -91.5v-231h32q49 165 175 261.5t297 96.5q211 0 350.5 -137.5t139.5 -347.5t-139.5 -347.5t-350.5 -137.5q-171 0 -297.5 96.5t-174.5 261.5h-32v-231q0 -56 -36 -91.5t-91 -35.5q-56 0 -92 36t-36 91zM642 485
q0 -103 66.5 -166.5t169.5 -63.5t169 63.5t66 166.5t-66 167t-169 64t-169.5 -64t-66.5 -167z" />
    <glyph glyph-name="afii10097" unicode="&#x44f;" horiz-adv-x="862" 
d="M40 129q0 55 44 94l149 131q-191 91 -191 290q0 141 106 236q103 91 245 90h224q55 0 91 -35t36 -90v-718q0 -56 -36 -91.5t-92 -35.5t-91.5 36t-35.5 91v115l-235 -210q-38 -34 -85 -34q-52 0 -90.5 39.5t-38.5 91.5zM297 644q0 -33 32 -53q29 -18 64 -18h96v143h-96
q-35 0 -64 -18q-33 -21 -32 -54z" />
    <glyph glyph-name="afii10071" unicode="&#x451;" horiz-adv-x="1003" 
d="M40 485q0 202 141.5 343.5t343.5 141.5q188 0 344 -144q93 -86 93 -171q0 -65 -63 -101l-477 -275q49 -25 103 -24q83 0 138 46q37 42 73 85q50 49 95 49q52 0 92.5 -37t40.5 -89q0 -29 -19 -66q-56 -110 -177 -178q-116 -65 -243 -65q-202 0 -343.5 141.5t-141.5 343.5z
M189 1112q0 66 45.5 111.5t111.5 45.5t111.5 -45.5t45.5 -111.5t-45.5 -112t-111.5 -46t-111.5 46t-45.5 112zM295 499l333 193q-49 24 -103 24q-91 0 -158 -62.5t-72 -154.5zM547 1112q0 66 45.5 111.5t111.5 45.5t111.5 -45.5t45.5 -111.5t-45.5 -112t-111.5 -46
t-111.5 46t-45.5 112z" />
    <glyph glyph-name="afii10099" unicode="&#x452;" horiz-adv-x="958" 
d="M0 1022q0 95 95 95h52v84q0 56 36 91.5t91 35.5q56 0 92 -35.5t36 -91.5v-84h51q95 0 96 -95q0 -29 -15 -52q146 -8 245.5 -114t99.5 -252v-656q0 -127 -89.5 -216.5t-216.5 -89.5q-98 0 -163 41q-78 49 -78 142q0 51 27 91q30 45 79 45q33 0 76.5 -32t58.5 -32
q52 0 51 51v656q0 45 -33 78.5t-78 33.5q-46 0 -78.5 -32.5t-32.5 -79.5v-477q0 -56 -36 -91.5t-92 -35.5t-91.5 36t-35.5 91v800h-52q-95 0 -95 95z" />
    <glyph glyph-name="afii10100" unicode="&#x453;" horiz-adv-x="860" 
d="M119 127v716q0 51 38.5 89t89.5 38h39q-63 40 -63 116q0 74 71 109l239 120q30 15 60 15q52 0 88.5 -40.5t36.5 -92.5q0 -74 -71 -110l-234 -117h281q56 0 91.5 -35.5t35.5 -91.5t-35.5 -91.5t-91.5 -35.5h-320v-589q0 -56 -36 -91.5t-91 -35.5q-56 0 -92 36t-36 91z" />
    <glyph glyph-name="afii10101" unicode="&#x454;" horiz-adv-x="931" 
d="M40 485q0 199 139 338t338 139q91 0 183 -36q96 -38 154 -103q38 -41 38 -83q0 -49 -37 -86t-86 -37q-26 0 -104 53.5t-148 53.5q-138 0 -207 -120h459q52 0 85.5 -33t33.5 -86q0 -52 -33 -85.5t-86 -33.5h-459q69 -119 207 -119q70 0 147.5 53t103.5 53q49 0 86 -37
t37 -85q0 -43 -38 -84q-129 -139 -336 -139q-199 0 -338 139t-139 338z" />
    <glyph glyph-name="afii10102" unicode="&#x455;" horiz-adv-x="707" 
d="M40 230q0 52 40.5 89t92.5 37q49 0 94.5 -50.5t73.5 -50.5q29 0 50.5 21t21.5 50t-21 50.5t-51 21.5q-119 0 -202.5 83.5t-83.5 202.5t83.5 202.5t202.5 83.5q80 0 155 -45q86 -52 86 -126q0 -52 -39 -91.5t-91 -39.5q-33 0 -70 24t-41 24q-32 0 -32 -32t33 -32
q135 0 230 -95.5t95 -230.5q0 -136 -95 -231t-231 -95q-86 0 -164 44t-118 119q-19 35 -19 67z" />
    <glyph glyph-name="afii10103" unicode="&#x456;" horiz-adv-x="493" 
d="M88 1170q0 66 46.5 112t112.5 46t112 -46t46 -112q0 -65 -46 -110.5t-112 -45.5t-112.5 45.5t-46.5 110.5zM119 127v716q0 56 36 91.5t92 35.5t91.5 -35.5t35.5 -91.5v-716q0 -56 -36 -91.5t-91 -35.5q-56 0 -92 36t-36 91z" />
    <glyph glyph-name="afii10104" unicode="&#x457;" horiz-adv-x="493" 
d="M-89 1112q0 66 45.5 111.5t111.5 45.5t111.5 -45.5t45.5 -111.5q0 -65 -46 -111.5t-111 -46.5q-66 0 -111.5 46t-45.5 112zM119 127v716q0 56 35.5 91.5t92.5 35.5q56 0 91 -35.5t35 -91.5v-716q0 -56 -35.5 -91.5t-90.5 -35.5q-56 0 -92 35.5t-36 91.5zM268 1112
q0 66 45.5 111.5t111.5 45.5t111.5 -45.5t45.5 -111.5t-45.5 -112t-111.5 -46t-111.5 46t-45.5 112z" />
    <glyph glyph-name="afii10105" unicode="&#x458;" horiz-adv-x="493" 
d="M-173 -175q0 51 27 91q30 45 79 45q33 0 76.5 -32t58.5 -32q52 0 51 51v895q0 56 36 91.5t92 35.5t91.5 -35.5t35.5 -91.5v-895q0 -127 -89.5 -216.5t-216.5 -89.5q-98 0 -163 41q-78 49 -78 142zM88 1170q0 66 46.5 112t112.5 46t112 -46t46 -112q0 -65 -46 -110.5
t-112 -45.5t-112.5 45.5t-46.5 110.5z" />
    <glyph glyph-name="afii10106" unicode="&#x459;" horiz-adv-x="1320" 
d="M40 127q0 40 28 77l524 700q52 69 112 69q55 0 93.5 -37.5t38.5 -91.5q0 -4 -1 -11t-1 -11v-169h96q142 0 245 -91q105 -94 105 -235t-105 -236q-103 -91 -245 -90h-224q-51 0 -89 38t-38 89v334l-308 -410q-40 -52 -98 -53q-52 0 -92.5 38.5t-40.5 89.5zM834 255h96
q35 0 63 19q33 20 33 53t-33 53q-29 18 -63 18h-96v-143z" />
    <glyph glyph-name="afii10107" unicode="&#x45a;" horiz-adv-x="1397" 
d="M119 127v716q0 56 36 91.5t92 35.5t91.5 -35.5t35.5 -91.5v-191h282v191q0 56 36 91.5t91 35.5q56 0 92 -35.5t36 -91.5v-191h96q142 0 244 -91q107 -95 107 -235q0 -141 -106 -235q-102 -91 -245 -92l-224 1q-51 0 -89 38t-38 89v271h-282v-271q0 -56 -36 -91.5
t-91 -35.5q-56 0 -92 36t-36 91zM911 255l96 -1q35 0 64 18q32 21 32 54t-32 53q-29 18 -64 19h-96v-143z" />
    <glyph glyph-name="afii10108" unicode="&#x45b;" horiz-adv-x="958" 
d="M0 1022q0 95 95 95h52v84q0 56 36 91.5t91 35.5q56 0 92 -35.5t36 -91.5v-84h51q95 0 96 -95q0 -29 -15 -52q146 -8 245.5 -114t99.5 -252v-477q0 -56 -36 -91.5t-91 -35.5q-56 0 -92 36t-36 91v477q0 45 -33 78.5t-78 33.5q-46 0 -78.5 -32.5t-32.5 -79.5v-477
q0 -56 -36 -91.5t-92 -35.5t-91.5 36t-35.5 91v800h-52q-95 0 -95 95z" />
    <glyph glyph-name="afii10109" unicode="&#x45c;" horiz-adv-x="1075" 
d="M119 127v716q0 56 36 91.5t92 35.5t91.5 -35.5t35.5 -91.5v-349q3 49 47 88l-7 -5q1 1 407 362q38 34 84 34q52 0 91.5 -40t39.5 -92t-46 -93l-296 -263l296 -262q46 -41 46 -94q0 -52 -39.5 -91.5t-91.5 -39.5q-46 0 -84 34l-400 356q-44 39 -47 88v-349
q0 -56 -36 -91.5t-91 -35.5q-56 0 -92 36t-36 91zM351 1086q0 74 71 109l239 120q30 15 60 15q52 0 88.5 -40.5t36.5 -92.5q0 -74 -71 -110l-239 -119q-30 -15 -60 -15q-52 0 -88.5 40t-36.5 93z" />
    <glyph glyph-name="afii10110" unicode="&#x45e;" horiz-adv-x="930" 
d="M80 366v477q0 56 35.5 91.5t91.5 35.5t91.5 -35.5t35.5 -91.5v-477q0 -45 33 -78t78 -33t78.5 33t33.5 78v477q0 56 35.5 91.5t91.5 35.5t91.5 -35.5t35.5 -91.5v-835q0 -152 -107 -259t-259 -107q-96 0 -182 49q-89 50 -133 132q-20 37 -20 68q0 52 40.5 89t92.5 37
q49 0 102 -60t100 -60q46 0 79 37t33 83q-54 -17 -112 -17q-152 0 -258.5 107t-106.5 259zM137 1202q0 52 39.5 90.5t92.5 38.5q47 0 109 -61t66 -61q6 0 68 60.5t109 60.5q52 0 93.5 -38.5t41.5 -90.5q0 -45 -55 -105q-128 -140 -260 -140q-150 0 -275 166q-29 39 -29 80z
" />
    <glyph glyph-name="afii10193" unicode="&#x45f;" horiz-adv-x="940" 
d="M119 127v716q0 56 36 91.5t92 35.5t91.5 -35.5t35.5 -91.5v-588h192v580q0 56 36 91.5t92 35.5t91.5 -35t35.5 -92v-708q0 -117 -124 -127h-100v-111q0 -56 -35.5 -92t-91.5 -36t-91.5 36t-35.5 92v111h-96q-51 0 -89.5 38t-38.5 89z" />
    <glyph glyph-name="afii10050" unicode="&#x490;" horiz-adv-x="970" 
d="M119 127v1074q0 51 38.5 89t89.5 38h469v112q0 56 35.5 91.5t91.5 35.5t91.5 -36t35.5 -91v-239q0 -56 -35.5 -91.5t-91.5 -35.5h-469v-947q0 -56 -36 -91.5t-91 -35.5q-56 0 -92 36t-36 91z" />
    <glyph glyph-name="afii10098" unicode="&#x491;" horiz-adv-x="860" 
d="M119 127v716q0 51 38.5 89t89.5 38h319v112q0 56 36 91.5t92 35.5t91.5 -36t35.5 -91v-239q0 -52 -38 -89.5t-89 -37.5h-320v-589q0 -56 -36 -91.5t-91 -35.5q-56 0 -92 36t-36 91z" />
    <glyph glyph-name="uni2000" unicode="&#x2000;" horiz-adv-x="844" 
 />
    <glyph glyph-name="uni2001" unicode="&#x2001;" horiz-adv-x="1689" 
 />
    <glyph glyph-name="uni2002" unicode="&#x2002;" horiz-adv-x="844" 
 />
    <glyph glyph-name="uni2003" unicode="&#x2003;" horiz-adv-x="1689" 
 />
    <glyph glyph-name="uni2004" unicode="&#x2004;" horiz-adv-x="563" 
 />
    <glyph glyph-name="uni2005" unicode="&#x2005;" horiz-adv-x="422" 
 />
    <glyph glyph-name="uni2006" unicode="&#x2006;" horiz-adv-x="281" 
 />
    <glyph glyph-name="uni2007" unicode="&#x2007;" horiz-adv-x="281" 
 />
    <glyph glyph-name="uni2008" unicode="&#x2008;" horiz-adv-x="211" 
 />
    <glyph glyph-name="uni2009" unicode="&#x2009;" horiz-adv-x="337" 
 />
    <glyph glyph-name="uni200A" unicode="&#x200a;" horiz-adv-x="93" 
 />
    <glyph glyph-name="uni2010" unicode="&#x2010;" horiz-adv-x="691" 
d="M40 485q0 56 35.5 91.5t91.5 35.5h358q56 0 91.5 -35.5t35.5 -91.5t-35.5 -91.5t-91.5 -35.5h-358q-56 0 -91.5 35.5t-35.5 91.5z" />
    <glyph glyph-name="uni2011" unicode="&#x2011;" horiz-adv-x="691" 
d="M40 485q0 56 35.5 91.5t91.5 35.5h358q56 0 91.5 -35.5t35.5 -91.5t-35.5 -91.5t-91.5 -35.5h-358q-56 0 -91.5 35.5t-35.5 91.5z" />
    <glyph glyph-name="figuredash" unicode="&#x2012;" horiz-adv-x="691" 
d="M40 485q0 56 35.5 91.5t91.5 35.5h358q56 0 91.5 -35.5t35.5 -91.5t-35.5 -91.5t-91.5 -35.5h-358q-56 0 -91.5 35.5t-35.5 91.5z" />
    <glyph glyph-name="endash" unicode="&#x2013;" horiz-adv-x="811" 
d="M40 485q0 56 35.5 91.5t91.5 35.5h477q56 0 91.5 -35.5t35.5 -91.5t-35.5 -91.5t-91.5 -35.5h-477q-56 0 -91.5 35.5t-35.5 91.5z" />
    <glyph glyph-name="emdash" unicode="&#x2014;" horiz-adv-x="1288" 
d="M40 485q0 56 35.5 91.5t91.5 35.5h954q56 0 92 -35.5t36 -91.5t-36 -91.5t-92 -35.5h-954q-56 0 -91.5 35.5t-35.5 91.5z" />
    <glyph glyph-name="quoteleft" unicode="&#x2018;" horiz-adv-x="441" 
d="M40 962q0 208 143 344q42 40 88 40q52 0 91.5 -39.5t39.5 -91.5q0 -30 -54 -106.5t-54 -146.5q0 -56 -35.5 -91.5t-91.5 -35.5t-91.5 36t-35.5 91z" />
    <glyph glyph-name="quoteright" unicode="&#x2019;" horiz-adv-x="441" 
d="M40 948q0 30 53.5 107t53.5 146q0 56 36 91.5t91 35.5q56 0 92 -35.5t36 -91.5q0 -209 -143 -344q-42 -40 -89 -39q-52 0 -91 39t-39 91z" />
    <glyph glyph-name="quotesinglbase" unicode="&#x201a;" horiz-adv-x="441" 
d="M40 -126q0 30 53.5 107t53.5 146q0 56 36 92t91 36q56 0 92 -36t36 -92q0 -209 -143 -343q-42 -40 -89 -40q-52 0 -91 39.5t-39 90.5z" />
    <glyph glyph-name="quotedblleft" unicode="&#x201c;" horiz-adv-x="799" 
d="M40 962q0 208 143 344q42 40 88 40q52 0 91.5 -39.5t39.5 -91.5q0 -30 -54 -106.5t-54 -146.5q0 -56 -35.5 -91.5t-91.5 -35.5t-91.5 36t-35.5 91zM398 962q0 208 143 344q42 40 88 40q52 0 91.5 -39.5t39.5 -91.5q0 -30 -54 -106.5t-54 -146.5q0 -56 -35.5 -91.5
t-91.5 -35.5t-91.5 36t-35.5 91z" />
    <glyph glyph-name="quotedblright" unicode="&#x201d;" horiz-adv-x="799" 
d="M40 948q0 30 53.5 107t53.5 146q0 56 36 91.5t91 35.5q56 0 92 -35.5t36 -91.5q0 -209 -143 -344q-42 -40 -89 -39q-52 0 -91 39t-39 91zM398 948q0 30 53.5 107t53.5 146q0 56 36 91.5t91 35.5q56 0 92 -35.5t36 -91.5q0 -209 -143 -344q-42 -40 -89 -39q-52 0 -91 39
t-39 91z" />
    <glyph glyph-name="quotedblbase" unicode="&#x201e;" horiz-adv-x="799" 
d="M40 -126q0 30 53.5 107t53.5 146q0 56 36 92t91 36q56 0 92 -36t36 -92q0 -209 -143 -343q-42 -40 -89 -40q-52 0 -91 39.5t-39 90.5zM398 -126q0 30 53.5 107t53.5 146q0 56 36 92t91 36q56 0 92 -36t36 -92q0 -209 -143 -343q-42 -40 -89 -40q-52 0 -91 39.5t-39 90.5z
" />
    <glyph glyph-name="bullet" unicode="&#x2022;" 
d="M27 639q0 62 25 120q32 73 86 73t85 -73q25 -58 25 -120q0 -65 -24 -121q-31 -72 -86 -73q-56 0 -86 73q-25 56 -25 121zM136 255q0 134 131 221q117 77 258 77t258 -77q131 -87 131 -221q0 -80 -27 -145q-36 -85 -105 -85q-19 0 -54 15.5t-56 15.5q-30 0 -74 -28
t-73 -28t-73 28t-74 28q-21 0 -56 -15.5t-54 -15.5q-69 0 -105 85q-27 64 -27 145zM276 777q0 62 25 120q32 73 86 73t85 -73q25 -58 25 -120q0 -65 -24 -121q-31 -73 -86 -73q-56 0 -87 73q-24 56 -24 121zM553 777q0 62 24 120q32 73 86 73q53 0 85 -73q26 -58 26 -120
q0 -65 -24 -121q-31 -73 -87 -73t-86 73q-24 56 -24 121zM802 639q0 62 24 120q32 73 86 73q53 0 85 -73q26 -58 26 -120q0 -65 -25 -121q-30 -72 -86 -73q-56 0 -86 73q-24 56 -24 121z" />
    <glyph glyph-name="ellipsis" unicode="&#x2026;" horiz-adv-x="1350" 
d="M40 158q0 65 46 110.5t112 45.5t112 -45.5t46 -110.5q0 -66 -46 -112t-112 -46t-112 46t-46 112zM517 158q0 65 46 110.5t112 45.5t112.5 -45.5t46.5 -110.5q0 -66 -46.5 -112t-112.5 -46t-112 46t-46 112zM994 158q0 65 46 110.5t112 45.5t112.5 -45.5t46.5 -110.5
q0 -66 -46.5 -112t-112.5 -46t-112 46t-46 112z" />
    <glyph glyph-name="uni202F" unicode="&#x202f;" horiz-adv-x="337" 
 />
    <glyph glyph-name="guilsinglleft" unicode="&#x2039;" horiz-adv-x="509" 
d="M40 485q0 56 112 270q21 41 75 145q38 72 109 72q52 0 93 -36.5t41 -88.5q0 -29 -16 -61l-150 -301l150 -300q16 -32 16 -62q0 -52 -40.5 -88.5t-93.5 -36.5q-72 0 -109 72q-21 41 -75 146q-112 212 -112 269z" />
    <glyph glyph-name="guilsinglright" unicode="&#x203a;" horiz-adv-x="509" 
d="M40 123q0 31 15 62l150 300l-150 301q-15 30 -15 61q0 52 40.5 88.5t92.5 36.5q72 0 109 -72q25 -49 76 -145q112 -212 112 -270q0 -56 -112 -269q-21 -41 -76 -146q-38 -72 -109 -72q-52 0 -92.5 36.5t-40.5 88.5z" />
    <glyph glyph-name="uni205F" unicode="&#x205f;" horiz-adv-x="422" 
 />
    <glyph glyph-name="trademark" unicode="&#x2122;" horiz-adv-x="1477" 
d="M40 1201q0 56 35.5 91.5t91.5 35.5h358q56 0 91.5 -35.5t35.5 -91.5t-35.5 -91.5t-91.5 -35.5h-52v-410q0 -56 -35.5 -91.5t-91.5 -35.5t-91.5 35.5t-35.5 91.5v410h-52q-56 0 -91.5 35.5t-35.5 91.5zM586 659q0 16 3 33l120 537q27 121 119 121q81 0 122 -99l62 -145
l62 145q42 99 122 99q92 0 119 -121l120 -537q3 -17 3 -33q0 -53 -38 -87.5t-92 -34.5q-100 0 -122 99l-34 152q-64 -152 -140 -152t-140 152l-34 -152q-21 -99 -121 -99q-54 0 -92.5 34.5t-38.5 87.5z" />
    <glyph glyph-name="uniE000" unicode="&#xe000;" horiz-adv-x="974" 
d="M0 0v974h974v-974h-974z" />
    </font>
</defs>
</svg>
